<svg width="514" height="542" viewBox="0 0 514 542" fill="none" xmlns="http://www.w3.org/2000/svg">
<g clip-path="url(#clip0_12_2)">
<path d="M395.16 52.81C431.3 84.78 455.625 125.438 473.347 166.443C491.07 207.795 502.538 249.148 508.793 294.323C515.395 339.498 517.133 388.495 498.02 427.068C478.908 465.64 438.597 494.135 396.202 506.645C353.807 518.808 309.328 515.333 259.983 523.325C210.638 531.318 156.775 550.778 120.287 535.14C84.1475 519.155 65.3825 467.725 45.2275 420.813C24.725 374.248 2.485 332.2 0.747502 289.458C-0.989998 246.715 17.775 202.583 43.1425 164.705C68.51 126.828 100.827 94.8575 138.705 64.2775C176.93 33.35 220.715 4.16001 266.237 0.685006C312.107 -2.44249 359.367 20.84 395.16 52.81Z" fill="#27A0D6"/>
</g>
<defs>
<clipPath id="clip0_12_2">
<rect width="514" height="542" fill="white"/>
</clipPath>
</defs>
</svg>
