<svg width="773" height="697" viewBox="0 0 773 697" fill="none" xmlns="http://www.w3.org/2000/svg">
<path d="M563.624 380.67C564.264 382.184 566.39 382.851 566.209 384.888C564.286 385.978 563.041 384.602 561.805 383.846C552.14 377.933 542.329 372.251 533.257 365.411C530.02 362.97 525.962 362.46 522.173 361.495C516.809 360.13 511.549 358.577 506.484 356.315C504.032 355.22 501.685 353.448 498.65 355.859C497.091 357.096 489.945 352.648 488.848 349.629C487.238 345.199 483.154 344.536 479.749 342.797C478.139 341.974 476.995 342.818 476.41 344.366C475.796 345.993 474.917 347.429 473.084 348.647C478.872 353.345 486.902 354.89 489.543 363.439C481.032 362.213 476.985 351.99 467.596 353.741C467.704 357.541 470.103 359.388 472.298 361.318C473.72 362.568 475.585 363.593 475.843 365.593C477.155 375.763 484.195 382.546 490.731 389.144C501.276 399.789 510.346 411.828 521.759 421.632C523.232 422.897 525.027 424.242 524.568 426.903C522.16 428.469 520.46 426.87 518.847 425.447C514.209 421.357 510.479 416.428 506.495 411.744C499.2 403.17 490.653 395.916 482.313 388.436C480.803 387.081 479.062 385.968 477.299 387.616C475.179 389.599 477.446 390.941 478.496 392.291C488.868 405.629 500.368 418.01 511.303 430.871C512.678 432.488 514.302 433.989 514.354 436.552C511.295 437.218 510.012 435.026 508.434 433.751C502.739 429.149 498.762 422.956 493.817 417.654C491.127 414.77 488.347 411.967 485.551 409.186C483.576 407.222 482.024 407.62 480.967 409.966C481.317 411.62 482.577 411.546 483.569 411.932C484.286 412.212 485.222 412.512 485.553 413.092C486.864 415.391 483.285 418.104 486.233 420.469C489.279 422.913 487.149 425.134 484.633 427.921C491.184 428.824 490.565 433.463 490.745 437.712C489.822 439.129 487.639 438.494 486.656 440.478C488.482 443.277 487.056 446.648 487.495 450.18C484.888 451.19 482.249 452.277 483.871 456.159C484.904 458.633 486.342 461.312 484.442 464.085C481.838 464.065 482.005 461.196 479.931 460.384C475.851 464.03 478.901 469.322 477.142 473.838C473.503 472.499 470.085 474.004 466.728 474.905C461.402 476.335 466.36 481.004 464.503 483.726C461.494 484.057 461.339 481.55 460.59 479.832C459.689 477.767 459.087 475.615 456.159 475.739C453.215 475.863 452.638 477.915 452.25 480.213C451.956 481.953 451.553 483.643 449.6 484.403C446.199 483.507 447.502 478.247 442.837 477.782C441.772 482.596 436.754 483.535 433.687 486.618C430.772 484.88 433.289 481.867 431.69 480.09C430.437 479.274 429.508 480.319 428.462 480.441C425.922 480.738 424.521 479.772 425.849 477.277C426.953 475.202 426.7 473.67 425.164 472.208C423.794 470.903 421.977 470.371 420.359 471.327C416.465 473.627 413.49 470.7 411.71 468.754C407.349 463.988 402.275 460.124 397.493 455.908C392.998 451.944 392.857 452.122 397.496 448.484C397.803 448.244 397.858 447.684 398.048 447.231C396.057 445.22 392.956 447.613 391.052 445.377C391.593 442.989 393.853 443.085 395.407 442.246C396.41 441.705 397.438 441.197 397.471 439.905C397.511 438.327 396.295 437.658 395.057 437.416C393.219 437.056 391.326 436.963 389.451 436.823C387.461 436.675 385.296 437.101 383.777 434.69C385.324 432.919 387.58 432.962 389.583 432.404C391.174 431.961 393.448 432.077 393.429 429.715C393.413 427.64 391.568 427.036 389.807 426.577C389.091 426.39 388.439 425.957 387.581 425.552C389.31 421.774 388.503 418.418 386.467 415.251C385.757 414.147 384.791 413.283 383.366 413.45C381.891 413.622 381.181 414.778 380.955 416.043C380.347 419.451 379.385 422.902 379.489 426.308C379.734 434.403 377.175 442.168 377.11 450.198C377.107 450.591 376.683 450.98 376.439 451.398C374.253 451.001 374.786 449.239 374.848 448.039C375.485 435.688 373.153 423.575 372.016 411.368C371.724 408.231 369.782 406.321 366.966 405.903C363.755 405.427 363.845 408.56 363.397 410.487C362.123 415.96 363.257 421.769 361.196 427.177C360.814 428.178 360.962 429.387 359.58 430.23C357.951 429.668 356.521 428.26 354.313 428.217C347.6 428.086 345.578 429.465 344.267 436.112C343.93 437.822 344.615 440.146 341.706 440.217C340.202 438.875 341.604 437.527 341.602 436.211C341.6 434.799 341.741 433.386 341.823 431.896C340.054 431.147 338.202 430.655 336.687 429.652C334.534 428.227 332.68 428.157 330.659 429.757C328.531 431.44 327.644 431.081 325.18 428.965C321.189 425.538 322.081 419.383 316.872 417.023C313.096 415.312 308.971 414.429 305.307 411.596C305.078 409.938 306.804 408.363 307.183 406.387C307.529 404.586 308.631 402.359 306.552 401.23C304.296 400.005 303.194 402.27 302.197 403.779C298.978 408.652 296.003 413.672 293.473 418.948C292.751 420.453 292.346 422.257 290.55 422.999C288.365 421.659 289.685 420.234 290.198 418.85C292.613 412.345 295.222 405.898 296.761 399.109C297.338 396.565 298.023 393.945 296.767 390.851C291.25 393.016 290.918 400.41 284.066 402.3C287.926 393.425 296.997 387.32 293.864 376.595C290.431 376.937 288.383 379.071 286.529 381.402C283.065 385.757 279.006 389.476 274.599 392.839C273.113 393.974 271.605 395.057 268.876 394.907C270.147 388.634 277.661 388.74 279.179 383.923C280.762 378.901 285.44 376.532 288.249 372.799C286.744 370.909 285.101 372.982 283.644 371.353C282.204 369.322 285.413 367.847 285.123 365.622C282.048 363.297 279.149 363.56 275.601 365.22C265.702 369.851 256.079 374.837 247.66 381.911C246.627 382.779 245.522 383.87 243.664 383.034C242.835 380.536 244.926 379.416 246.362 378.233C251.843 373.719 257.492 369.41 262.972 364.895C265.399 362.895 267.625 360.639 269.841 358.4C271.228 357 272.423 355.266 270.615 353.464C268.951 351.805 266.901 351.016 264.667 352.67C263.272 353.703 261.963 354.882 260.472 355.749C258.648 356.81 256.957 358.54 254.244 357.632C254.072 354.394 257.944 353.02 257.998 349.699C254.722 349.136 251.851 351.817 248.414 350.367C248.263 348.781 249.261 346.239 245.449 346.446C249.221 342.458 254.295 341.269 256.754 337.189C256.435 334.926 253.838 335.84 253.037 333.614C253.636 330.908 257.642 328.83 256.583 324.877C250.69 322.519 244.171 326.445 237.547 323.074C241.746 319.017 247.611 322.671 250.849 317.747C250.722 316.999 250.473 315.537 250.098 313.338C245.123 316.288 240.345 318.791 234.982 319.184C234.124 317.171 236.056 317.127 236.273 316.1C236.042 315.961 235.814 315.71 235.581 315.705C223.362 315.448 211.997 319.555 200.553 322.937C196.021 324.276 191.49 323.807 187.027 324.657C186.738 324.712 186.249 324.696 186.129 324.523C182.24 318.896 177.519 323.196 173.145 323.419C170.508 318.357 164.727 317.847 160.527 314.232C161.126 311.547 159.14 308.895 158.488 306.01C156.947 299.181 156.533 291.941 161.072 285.836C162.901 283.377 163.464 279.324 166.681 278.623C172.858 277.278 178.602 272.763 185.301 275.06C190.659 276.898 195.899 279.203 200.45 282.74C200.689 282.926 201.026 283.223 201.017 283.457C200.792 289.243 205.486 294.181 203.708 300.321C202.827 303.362 203.537 306.649 201.877 309.779C200.767 311.872 199.972 313.876 197.553 314.77C198.42 317.936 200.552 317.863 202.826 317.553C205.955 317.126 207.613 315.525 206.563 311.116C211.267 314.387 215.415 312.96 219.623 312.713C222.815 312.527 223.929 309.564 226.924 308.996C233.878 307.676 240.693 305.549 247.489 303.5C253.595 301.659 254.107 300.699 253.733 294.136C248.399 292.984 244.167 297.732 238.9 297.139C238.418 295.057 240.957 294.986 241.323 293.467C240.135 291.757 236.86 294.106 236.495 290.923C236.023 286.813 240.603 287.119 242.34 284.171C237.042 281.012 233.157 276.387 225.871 276.329C215.046 276.242 204.295 273.89 193.397 273.71C191.663 273.682 189.023 273.333 189.185 270.884C189.368 268.119 192.043 268.284 194.025 268.497C197.624 268.885 201.259 270.268 204.74 269.904C206.742 269.694 208.511 267.614 210.56 270.449C211.506 268.647 212.206 267.315 213.075 265.661C208.541 264.327 203.118 267.015 199.188 262.307C202.186 260.185 205.193 261.072 208.018 261.065C214.013 261.049 220.011 261.274 226.004 261.185C228.821 261.143 232.028 261.113 231.956 256.888C231.887 252.813 228.85 253.274 226.179 253.15C222.461 252.978 218.608 253.31 215.18 250.374C216.394 249.606 217.442 248.961 218.471 248.288C219.725 247.469 221.807 247.317 221.685 245.286C221.55 243.038 219.634 242.133 217.799 241.664C211.551 240.067 205.636 237.2 199.148 236.561C190.481 235.707 182.696 231.047 173.865 230.857C172.019 230.818 170.419 229.58 170.848 227.42C171.292 225.184 173.259 225.787 174.738 226.017C176.91 226.354 179.079 226.81 181.19 227.421C184.1 228.264 186.742 228.136 189.668 225.686C184.829 221.893 179.192 221.228 174.012 221.255C167.039 221.292 160.115 221.048 153.306 219.944C133.062 216.664 112.428 216.185 92.4035 211.38C66.4757 205.159 40.2499 200.552 13.8432 196.93C12.5965 196.759 11.2994 196.699 10.3884 195.222C11.9677 191.973 14.6463 193.356 17.1221 193.711C44.7153 197.662 71.7979 204.899 99.644 207.089C124.81 209.069 150.051 209.689 175.31 209.282C179.696 209.211 184.124 209.864 188.481 210.526C191.232 210.944 193.074 210.451 194.146 207.727C195.016 205.517 197.065 204.524 199.347 203.414C196.875 202.046 195.088 201.176 192.131 202.696C189.37 204.116 185.977 203.233 184.058 199.605C187.4 195.746 190.324 191.137 196.589 195.126C197.101 195.453 198.08 195.08 198.837 194.987C205.172 194.207 206.968 195.745 206.862 202.398C216.757 202.13 226.234 199.85 236.318 197.657C234.529 195.259 232.576 195.454 230.782 195.415C226.807 195.329 222.904 194.744 219.153 193.495C216.512 192.617 212.85 192.345 214.954 187.656C215.625 186.16 213.53 185.427 212.392 184.709C206.926 181.259 200.869 179.659 194.469 179.265C188.8 178.916 183.117 178.753 177.461 178.26C174.6 178.011 171.46 177.96 169.546 175.078C170.776 172.655 172.806 173.03 174.569 173.373C180.645 174.557 186.676 174.864 192.897 174.343C200.091 173.741 206.83 176.609 213.656 178.533C228.842 182.813 244.154 182.97 259.515 179.608C261.886 179.089 264.537 178.649 265.316 176.743C262.318 167.72 253.078 167.16 247.504 161.708C255.779 159.353 262.335 165.457 269.984 165.713C262.564 160.618 252.616 161.833 245.601 155.644C251.144 154.712 256 159.728 261.65 157.475C262.109 155.086 260.349 154.321 259.034 153.317C257.223 151.935 254.211 152.033 254.198 148.406C254.195 147.494 251.062 147.025 249.048 147.33C245.691 147.838 243.905 146.851 241.289 143.6C242.64 141.872 245.044 143.595 246.516 141.95C247.488 139.828 244.884 138.811 244.756 136.57C248.244 135.179 251.409 136.909 254.274 138.371C259.104 140.835 264.374 141.951 269.339 143.963C271.967 145.029 274.761 144.864 278.38 143.27C266.472 135.821 252.3 135.728 241.214 127.218C244.328 125.362 246.498 126.642 248.552 127.451C261.915 132.714 275.398 137.556 289.521 140.449C295.249 141.623 300.983 142.761 306.827 142.856C309.131 142.894 312.846 144.683 312.71 139.607C312.683 138.604 314.866 139.505 315.727 137.533C310.583 135.302 305.48 133.272 299.694 133.575C295.751 133.782 295.427 133.591 293.98 129.751C296.008 127.777 298.079 129.392 300.127 129.707C304.536 130.385 308.832 133.989 313.445 130.189C313.772 129.919 314.865 130.069 315.214 130.415C320.073 135.234 327.733 132.423 332.725 136.858C332.962 137.069 333.616 136.811 334.011 136.778C338.867 130.14 329.39 127.487 329.569 121.814C334.391 121.968 334.807 127.576 338.707 128.151C339.937 126.581 338.309 124.595 339.725 123.119C341.771 123.394 342.284 125.253 343.201 126.62C344.53 128.604 345.969 130.48 347.904 131.887C349.024 132.701 350.285 133.796 351.748 132.756C353.291 131.659 353.162 130.064 352.47 128.495C350.231 123.42 347.181 118.804 344.243 114.131C341.892 110.392 339.343 106.778 337.012 103.027C335.972 101.352 334.917 99.5101 336.258 97.2888C339.029 97.4555 339.748 99.4838 340.571 101.284C343.613 107.942 347.726 113.906 352.414 119.478C353.906 121.252 355.768 123.547 358.321 121.964C360.866 120.386 361.283 117.566 359.922 114.82C358.733 112.422 357.339 110.125 356.006 107.8C354.657 105.448 353.338 103.199 354.69 100.275C355.678 98.1389 354.081 96.3828 353.194 94.561C352.285 92.6936 350.531 91.0679 351.273 87.7458C357.739 93.7683 358.628 102.57 364.312 108.441C366.649 106.814 367.061 104.943 366.78 102.549C365.479 91.4486 361.878 81.1067 356.967 71.1273C355.023 67.1772 353.52 63.0072 351.886 58.9094C351.312 57.4696 350.805 55.9527 351.604 54.1672C353.764 54.7887 353.922 56.7317 354.447 58.1838C356.842 64.8031 360.637 70.4476 365.06 75.931C369.912 81.9459 371.21 89.9844 375.21 96.5873C375.425 96.9424 375.448 97.5811 375.285 97.9736C370.846 108.673 377.929 114.069 385.759 120.437C384.609 114.927 381.917 111.234 380.615 107.047C380.007 105.095 377.013 102.252 380.448 101.057C383.696 99.927 383.35 103.745 384.023 105.782C385.01 108.771 385.62 111.947 387.044 114.706C387.841 116.25 388.225 119.937 391.917 117.686C392.662 117.231 393.346 118.669 393.931 119.376C395.04 120.716 396.151 122.462 398.162 121.475C400.11 120.518 399.421 118.433 399.338 116.77C399.218 114.36 398.018 111.909 399.862 108.998C403.433 112.012 400.856 116.139 402.201 118.764C410.736 121.281 412.571 128.425 414.729 135.668C424.497 130.462 434.868 126.454 443.291 119.933C449.365 115.231 453.475 107.629 457.523 100.654C458.698 98.629 459.7 96.4018 462.904 95.9754C463.779 100.094 461.738 103.269 459.689 106.243C456.024 111.564 452.04 116.664 448.263 121.909C447.088 123.542 445.706 125.146 445.723 128.287C451.681 129.13 457.693 129.045 463.687 128.064C466.934 127.532 469.977 126.4 473.312 128.215C475.411 129.357 477.125 127.354 478.704 126.1C487.371 119.217 496.619 113.18 506.006 107.347C507.716 106.284 509.448 105.22 512.57 104.997C509.246 112.414 500.599 113.993 497.743 121.256C500.409 121.481 502.167 120.114 503.959 119.092C513.554 113.623 523.03 107.954 533.509 104.207C536.81 103.026 539.229 100.317 541.792 97.9932C548.572 91.8454 555.279 85.6165 562.013 79.4179C562.594 78.8835 563.292 78.4202 563.713 77.7782C571.508 65.9079 583.597 58.7845 594.208 50.0124C597.595 47.2127 600.43 43.7522 603.589 40.6672C605.19 39.1037 607.202 37.2676 609.18 39.6577C610.916 41.7553 609.058 43.4647 607.347 44.7196C597.018 52.2948 588.019 61.4419 578.06 69.4423C574.345 72.4267 571.871 76.1545 569.802 80.2322C565.48 88.7449 559.545 95.6318 551.146 100.422C544.433 104.25 538.114 108.788 531.314 112.439C524.038 116.345 521.502 123.179 518.979 130.169C518.262 132.156 519.055 134.005 520.511 135.322C522.171 136.822 523.849 135.524 525.275 134.678C532.328 130.487 539.297 126.155 546.356 121.973C547.871 121.075 549.354 119.508 552.283 120.939C541.846 132.316 528.555 139.62 516.113 149.478C522.358 150.066 527.08 147.996 531.914 147.073C543.15 144.928 554.429 144.099 565.807 144.832C571.906 145.225 577.213 142.932 582.678 140.866C593.797 136.663 603.627 129.837 614.587 125.345C617.152 124.293 620.968 121.444 622.46 125.058C624.164 129.189 619.099 129.671 616.507 130.605C610.223 132.871 604.152 135.551 598.718 139.355C586.796 147.7 572.572 151.091 559.915 157.814C557.303 159.201 554.38 160.074 551.888 162.502C554.928 164.319 557.781 161.509 561.115 162.916C554.694 167.747 546.825 169.864 541.577 175.397C541.865 176.968 542.731 177.442 543.678 177.548C556.281 178.963 568.804 180.763 581.036 184.282C583.609 185.023 586.338 184.633 588.98 183.84C595.847 181.78 602.656 178.743 609.659 178.168C615.466 177.69 620.889 175.876 626.546 175.344C628.658 176.06 626.123 178.092 627.872 179.043C636.097 178.258 644.572 177.45 653.453 176.604C652.967 180.163 650.944 180.203 649.174 180.436C636.684 182.08 624.358 184.549 612.063 187.291C594.413 191.228 576.426 193.585 558.98 198.506C555.409 199.513 551.779 199.183 548.154 198.963C546.092 198.838 544.039 198.805 542.18 199.933C540.699 200.832 539.881 202.114 540.182 203.878C540.469 205.559 541.752 206.152 543.265 206.306C544.36 206.417 545.473 206.475 546.571 206.423C557.911 205.888 569.245 205.176 580.59 204.834C586.253 204.663 592.013 204.631 597.591 205.464C606.655 206.818 615.544 205.505 624.474 204.731C633.078 203.985 641.876 203.666 649.62 207.423C662.33 213.591 675.605 212.524 688.652 211.377C708.971 209.591 729.246 209.231 749.588 209.793C753.208 209.893 756.838 209.642 760.463 209.556C761.406 209.534 762.386 209.348 763.285 209.539C765.378 209.982 768.349 210.07 768.107 212.94C767.892 215.482 765.096 215.42 763.102 215.276C743.237 213.835 723.331 214.712 703.52 215.479C684.816 216.203 666.167 218.689 647.377 218.331C641.235 218.214 635.087 218.219 628.95 217.955C622.438 217.675 616.046 218.259 609.681 219.627C607.34 220.13 605.013 221.601 602.424 219.852C601.469 219.207 600.448 220.362 599.743 221.524C606.074 223.752 600.185 225.831 599.399 228.71C612.796 232.315 626.847 229.924 640.085 233.88C634.7 236.285 629.069 235.075 623.244 235.124C625.627 236.58 628.872 235.478 630.278 238.275C629.947 240.173 628.543 240.525 627.098 240.567C617.97 240.831 608.934 240.027 599.929 238.462C589.514 236.652 578.99 235.734 568.443 236.877C564.889 237.262 561.435 238.675 557.968 239.725C554.937 240.642 553.579 243.379 553.889 245.931C554.277 249.132 557.497 248.831 560.016 248.786C563.041 248.733 566.019 246.746 569.243 248.388C567.473 255.933 561.531 257.143 555.142 257.793C557.259 262.299 562.288 261.159 564.986 263.633C564.483 265.74 562.418 264.819 561.311 266.229C580.325 272.425 600.323 270.473 620.292 273.835C618.364 276.517 616.512 275.953 614.979 275.884C602.532 275.327 590.049 274.985 577.713 273.212C571.984 272.388 567.484 276.264 561.779 276.05C567.547 277.441 570.483 282.677 575.419 284.777C577.968 285.86 577.96 287.146 575.97 288.866C584.226 294.316 593.264 296.643 602.29 298.778C607.79 300.079 612.774 303.189 618.667 303.162C620.148 303.155 621.421 304.541 621.607 307.074C611.999 307.986 604.309 299.349 594.735 301.574C593.46 303.351 595.801 304.419 595.349 306.563C588.581 307.14 582.304 302.991 574.471 303.562C583.086 313.822 596.368 314.622 605.457 322.501C591.747 320.265 579.296 313.647 565.285 309.669C566.488 315.228 569.978 317.742 573.221 319.898C585.652 328.163 597.333 337.725 611.569 343.002C613.93 343.877 616.325 344.658 618.696 345.506C620.731 346.233 622.96 347.339 621.8 349.8C620.704 352.127 618.18 351.572 616.412 350.387C612.72 347.91 608.553 346.324 604.811 344.02C592.002 336.13 577.853 332.64 563.143 331.094C559.139 330.673 555.584 328.918 551.685 328.348C549.533 328.033 547.353 327.242 545.198 329.661C553.17 337.979 564.994 340.253 574.166 347.99C570.269 349.478 567.344 348.031 564.534 347.19C558.468 345.374 552.876 342.414 547.272 339.489C543.376 337.455 539.375 335.207 534.977 338.61C533.958 339.399 532.953 338.686 531.991 338.004C526.731 334.277 521.143 336.186 516.047 337.949C513 339.002 514.806 342.002 516.735 343.08C526.76 348.679 533.996 357.861 543.71 363.808C549.235 367.19 553.662 372.104 559.537 374.976C561.777 376.071 561.572 378.801 563.39 380.522C563.645 380.695 563.624 380.67 563.624 380.67ZM477.659 398.913C473.359 394.627 468.925 390.519 463.904 387.387C462.599 388.735 462.621 389.611 463.086 390.218C467.063 395.407 471.093 400.561 475.873 405.055C476.904 406.024 478.155 405.947 479.35 405.218C480.05 404.791 480.645 404.239 480.5 403.352C480.235 401.73 479.088 400.605 477.659 398.913ZM455.702 389.974C456.965 388.645 456.156 387.59 455.024 386.987C453.654 386.256 452.336 386.507 451.68 388.294C452.385 389.805 453.71 390.054 455.702 389.974Z" fill="#060930"/>
<path d="M346.211 649.041C345.149 650.741 343.842 651.537 342.303 651.985C339.935 651.04 341.432 648.435 339.868 646.821C337.736 647.258 335.211 648.425 333.389 645.684C331.996 646.951 330.866 647.978 329.848 648.903C327.457 648.507 328.396 646.101 327.059 645.157C324.724 645.472 324.689 648.38 322.367 649.256C319.95 645.005 317.175 646.052 313.912 648.727C309.613 652.25 306.818 647.269 303.325 646.266C302.515 646.034 301.956 644.553 300.805 644.323C290.599 642.284 290.685 632.979 287.764 625.826C287.147 624.317 288.536 623.247 289.083 621.976C290.43 618.85 294.564 615.261 288.058 612.935C287.873 612.869 288.035 611.833 288.035 611.031C292.211 611.465 296.163 611.652 297.527 606.69C296.689 605.112 294.965 605.297 293.896 604.404C291.067 602.042 286.49 601.251 290.634 595.242C292.731 592.2 293.759 590.3 297.541 589.464C302.372 588.397 305.225 583.229 304.651 578.295C304.263 574.959 305.553 573.921 308.726 574.697C312.631 575.651 318.122 570.817 317.738 566.833C317.477 564.129 311.193 562.051 308.065 563.676C306.003 564.747 304.328 566.568 301.93 566.936C301.639 566.659 301.207 566.397 301.244 566.262C302.907 560.157 298.956 559.075 294.384 558.617C291.197 558.298 288.99 557.096 289.515 553.594C287.293 552.492 285.603 554.529 283.282 553.749C284.365 550.901 281.812 549.135 281.217 546.807C280.5 544.003 281.104 540.888 282.768 538.255C279.703 536.364 275.635 535.159 280.755 531.266C283.233 529.383 281.077 526.88 280.271 524.838C279.861 523.801 278.577 523.11 276.874 521.485C284.114 520.927 284.894 514.108 289.308 510.804C289.849 508.699 286.76 507.778 287.209 505.421C289.199 504.608 290.68 506.365 292.794 506.673C292.911 503.63 294.779 502.811 297.192 503.288C299.19 500.507 296.693 496.955 299.3 494.661C301.659 494.379 301.739 496.959 303.548 497.736C305.938 495.287 306.901 491.482 309.897 489.694C320.604 494.356 331.274 498.335 342.733 500.864C341.529 505.884 344.505 510.237 347.177 514.661C347.709 515.542 348.123 516.399 347.589 517.287C344.773 521.965 347.911 522.901 351.487 523.787C352.963 524.152 354.612 524.433 355.674 525.984C354.073 528.149 351.367 524.654 349.745 527.446C352.433 529.674 350.644 531.52 349.408 534.215C347.496 538.381 345.403 542.731 344.451 547.139C343.716 550.542 342.22 551.709 339.506 552.28C337.009 552.806 334.836 553.815 334.147 556.316C333.534 558.543 332.942 560.742 336.986 561.149C341.372 561.592 345.566 563.22 349.548 559.919C350.484 559.143 351.84 559.424 352.355 560.643C353.78 564.021 357.324 565.435 359.247 568.322C360.772 570.611 362.758 571.331 365.101 569.937C366.523 570.966 365.528 573.111 367.687 573.582C368.838 569.881 364.184 567.161 365.514 563.439C368.059 562.787 369.114 564.653 370.42 565.873C373.193 568.463 376.014 570.971 379.356 572.825C381.078 573.779 382.678 573.606 384.185 572.372C385.599 571.215 385.121 569.921 384.56 568.529C384.054 567.27 382.957 565.791 384.367 564.619C386.067 563.207 387.197 564.957 388.418 565.812C389.433 566.522 390.206 567.633 391.888 567.697C393.954 564.976 391.484 562.885 390.699 560.591C390.117 558.893 388.202 557.049 390.131 555.463C392.276 553.7 393.822 556.04 395.426 557.118C398.238 559.008 398.444 563.01 401.756 565.015C405.25 559.487 409.142 565.546 413.065 564.699C415.042 561.147 412.268 556.701 415.218 553.37C418.038 553.635 418.136 555.979 418.682 557.814C420.97 565.5 423.767 567.045 431.602 564.176C434.122 563.253 434.957 563.93 435.771 566.116C437.357 570.374 441.754 573.257 446.002 572.357C449.218 571.676 450.817 572.345 451.264 575.65C451.784 579.487 454.031 580.858 457.887 580.579C461.948 580.286 466.274 585.63 465.77 589.863C465.261 594.137 468.689 599.521 472.867 600.064C477.329 600.644 478.835 602.959 478.264 606.97C481.384 609.154 485.798 606.413 488.394 609.944C487.259 612.935 484.479 611.592 482.661 612.487C480.994 613.308 478.098 612.078 477.786 615.117C477.49 618.006 477.872 620.832 480.349 622.849C481.076 623.441 481.942 623.867 482.755 624.352C485.246 625.836 486.562 627.604 483.878 630.145C487.938 633.028 493.46 632.144 496.971 636.551C493.014 637.995 489.968 635.604 486.71 635.347C483.336 635.081 479.854 634.183 477.989 637.842C476.312 641.131 478.61 646.205 482.18 648.427C484.507 649.875 487.491 650.41 489.017 652.98C487.956 655.388 486.006 654.63 484.4 654.659C481.406 654.713 478.401 654.746 475.416 654.551C472.738 654.375 471.357 655.943 470.212 657.913C468.873 660.218 470.953 661.312 472.07 662.709C473.423 664.401 475.093 665.891 475.544 667.856C474.83 669.723 472.923 668.505 472.04 670.1C472.116 671.273 472.213 672.768 472.328 674.537C467.22 674.176 465.524 668.12 460.822 668.002C459.031 670.182 461.682 672.347 459.906 674.331C457.953 675.547 456.293 673.321 454.269 673.405C451.184 673.532 448.777 673.883 449.886 677.968C450.343 679.65 450.679 681.654 448.921 682.72C446.845 683.978 445.755 681.896 444.714 680.704C441.885 677.471 438.376 676.111 434.585 678.013C430.731 679.945 429.936 683.663 430.935 687.791C431.303 689.313 431.532 690.943 429.788 692.051C427.458 691.778 427.508 689.782 427.143 688.205C426.682 686.213 426.414 684.176 426.085 682.154C425.874 680.852 425.588 679.523 423.943 679.537C422.649 679.549 422.114 680.557 421.86 681.737C421.502 683.397 421.427 685.61 419.012 685.266C416.863 684.96 416.859 682.841 416.68 681.112C416.541 679.775 416.267 678.511 414.577 678.524C413.099 678.536 412.456 679.649 411.87 680.827C411.103 682.371 411.851 684.821 409.298 685.324C407.852 684.842 408.09 683.596 407.882 682.564C406.699 676.715 405.21 676.114 400.016 679.498C398.572 680.439 397.343 681.822 395.019 680.866C395.143 677.362 393.048 674.8 390.802 672.123C388.842 669.787 387.256 669.969 385.277 671.651C383.115 673.489 381.034 675.425 378.826 677.204C377.776 678.049 376.512 679.408 375.097 678.172C373.55 676.821 374.657 675.237 375.427 673.898C376.211 672.537 377.39 671.379 378.034 669.967C379.22 667.369 379.212 664.735 377.194 662.449C375.327 660.336 373.074 659.671 370.38 660.811C368.666 661.535 366.72 662.793 365.311 660.61C363.706 658.126 367.415 657.918 367.554 656.066C365.299 653.226 358.432 652.122 354.56 654.046C350.462 656.081 346.784 659.057 341.885 660.301C341.599 656.977 343.806 656.268 345.37 655.217C348.243 653.286 351.444 651.845 353.961 649.383C355.39 647.984 356.532 646.445 355.476 644.382C354.741 642.946 353.54 641.719 351.859 641.626C349.721 641.508 349.1 643.448 348.259 644.918C347.556 646.148 347.003 647.463 346.211 649.041ZM327.71 564.145C328.249 563.413 329.047 562.674 328.2 561.731C327.587 561.05 326.815 561.164 326.151 561.769C324.875 562.931 323.871 564.173 324.942 566.329C325.901 565.63 326.634 565.095 327.71 564.145Z" fill="#C7D8FF"/>
<path d="M143.61 440.74C146.254 444.601 148.639 448.266 154.379 446.028C154.201 451.614 155.125 456.476 160.275 460.324C160.877 461.144 158.348 462.127 159.288 463.579C160.739 465.884 164.57 463.19 165.567 466.512C159.277 471.142 159.277 471.142 163.462 474.821C159.779 480.725 154.473 485.986 156.051 493.984C154.74 495.149 153.077 494.257 151.628 494.474C149.991 496.773 151.857 499.106 151.406 501.402C148.754 501.766 147.858 494.238 143.832 500.085C142.286 502.331 137.374 502.021 138.662 507.211C131.905 501.347 123.794 505.349 116.516 501.076C116.096 497.644 111.286 497.859 108.224 495.705C104.866 493.342 101.981 491.153 97.8494 494.723C96.9768 490.799 101.8 491.054 101.315 488.076C100.158 486.141 97.7196 487.854 96.1817 486.46C96.4212 485.858 96.6753 485.221 96.968 484.486C95.3273 484.316 93.7836 486.479 91.9074 484.257C94.1035 481.613 93.2881 477.809 94.1523 475.027C95.8859 469.447 91.7721 469.106 88.8379 466.534C99.0693 464.594 94.5283 456.531 95.9131 451.064C97.4164 450.216 98.8483 450.652 100.249 450.621C101.686 450.591 103.483 450.523 104.039 449.153C105.916 444.527 109.568 442.606 114.101 441.548C114.918 441.358 115.46 439.989 116.112 439.185C121.943 442.154 124.894 440.951 128.367 433.895C129.447 437.791 133.161 438.589 135.398 441.025C136.635 442.372 138.066 441.269 139.266 440.586C140.66 439.793 141.961 438.732 143.61 440.74Z" fill="#040D22"/>
<path d="M74.6921 310.324C84.9802 313.323 87.9058 318.198 84.8825 326.659C83.0427 331.807 74.97 335.392 69.6991 333.401C64.7278 331.524 57.7438 317.149 59.418 311.381C62.5859 315.854 65.7482 313.685 68.9191 311.667C70.5594 310.624 72.3406 310.118 74.6921 310.324Z" fill="#040D22"/>
<path d="M278.373 592.882C275.53 592.557 273.186 593.575 270.596 594.017C269.847 592.387 269.748 590.738 267.545 589.844C264.629 588.66 263.991 581.772 265.864 578.245C267.981 574.261 273.525 571.64 277.393 572.94C279.002 573.48 280.381 574.548 282.2 574.694C284.063 574.844 284.652 576.543 285.12 578.02C286.315 581.789 282.382 590.695 278.373 592.882Z" fill="#C7D8FF"/>
<path d="M563.656 380.706C563.451 378.856 564.242 377.685 566.044 378.646C569.745 380.621 573.736 382.232 576.45 385.107C576.839 387.387 574.61 386.269 574.353 387.517C575.761 389.762 578.133 390.721 580.384 391.795C582.411 392.761 584.37 393.723 585.167 396.047C585.598 397.306 585.824 398.579 584.554 399.448C583.531 400.148 582.314 399.952 581.488 399.143C577.78 395.516 574.188 391.789 569.928 388.752C567.95 387.343 570.098 386.092 570.804 384.509C568.599 383.283 566.426 382.075 563.939 380.768C563.624 380.67 563.645 380.695 563.656 380.706Z" fill="black"/>
<path d="M615.413 83.9922C606.301 89.7364 597.767 95.8031 587.834 99.5021C598.723 90.3732 610.772 83.0574 623.812 75.7101C622.455 79.3099 622.455 79.3099 615.413 83.9922Z" fill="black"/>
<path d="M657.984 242.46C652.194 243.098 646.933 242.514 641.898 240.621C639.772 239.821 638.279 241.063 636.505 241.476C635.123 241.798 633.447 242.195 632.972 240.319C632.554 238.666 634.169 238.37 635.318 237.935C638.84 236.599 642.464 237.201 646.07 237.393C651.991 237.71 657.909 238.024 663.847 239.683C662.595 242.571 660.272 241.999 657.984 242.46Z" fill="black"/>
<path d="M272.901 53.5687C272.467 49.8693 273.766 47.2745 276.764 45.9074C279.45 44.682 281.95 45.362 284.134 48.1816C281.854 48.8424 278.645 48.5445 278.928 51.9499C279.195 55.1744 281.6 55.6427 285.042 54.6904C278.605 61.0675 276.166 60.741 272.901 53.5687Z" fill="#060930"/>
<path d="M237.248 445.751C239.986 443.438 242.678 443.19 245.396 444.786C247.237 445.867 247.683 447.755 247.34 449.744C246.888 452.361 245.097 453.884 242.664 454.535C238.309 455.702 235.953 452.138 237.248 445.751Z" fill="#060930"/>
<path d="M616.67 326.888C614.104 325.913 611.351 325.914 609.628 322.19C617.38 323.522 624.049 325.326 630.959 327.952C627.842 330.293 627.842 330.293 616.67 326.888Z" fill="black"/>
<path d="M283.389 404.302C284.335 407.126 283.17 409.009 280.604 408.687C277.98 408.358 274.187 408.913 273.871 404.579C273.748 402.896 274.783 401.654 276.193 400.791C277.847 399.777 279.094 400.462 280.294 401.716C281.142 402.603 282.158 403.328 283.389 404.302Z" fill="#060930"/>
<path d="M357.284 447.455C360.67 451.856 364.482 455.666 365.19 461.601C361.967 460.452 354.334 450.925 354.339 448.377C354.343 446.297 355.757 446.799 357.284 447.455Z" fill="#060930"/>
<path d="M236.395 130.927C237.665 131.741 239.162 131.885 239.127 134.261C233.446 133.5 228.391 131.943 223.665 128.203C227.026 126.58 227.026 126.58 236.395 130.927Z" fill="black"/>
<path d="M500.898 388.766C498.779 388.212 496.723 388.204 496.045 385.726C498.443 383.338 501.365 383.684 504.287 384.212C505.927 384.508 507.443 385.242 507.2 387.218C506.942 389.314 505.211 389.32 503.583 389.186C502.806 389.122 502.037 388.957 500.898 388.766Z" fill="black"/>
<path d="M574.18 252.883C580.177 252.053 586.077 251.35 592.043 252.904C591.397 254.74 589.936 254.766 588.878 254.664C583.944 254.189 578.794 255.774 574.18 252.883Z" fill="black"/>
<path d="M577.427 107.657C573.975 109.306 571.167 111.61 566.276 112.49C569.606 108.507 572.743 106.209 576.169 104.278C577.124 103.739 578.429 103.559 579.02 104.813C579.591 106.024 578.661 106.828 577.427 107.657Z" fill="black"/>
<path d="M361.646 435.969C361.514 438.545 360.659 440.632 358.126 440.057C355.675 439.5 355.795 437.077 356.186 435.025C356.427 433.765 357.083 432.557 358.568 432.574C360.456 432.595 361.061 434.135 361.646 435.969Z" fill="black"/>
<path d="M608.282 310.743C606.311 309.774 603.805 310.266 602.827 306.5C607.308 307.955 611.66 306.674 615.244 310.273C612.966 312.814 610.74 311.068 608.282 310.743Z" fill="black"/>
<path d="M342.851 78.456C342.313 77.0346 341.194 75.7528 342.917 74.934C344.116 74.3643 345.055 75.3328 345.682 76.2103C347.192 78.3265 348.921 80.3772 349.219 83.5725C345.813 83.2389 344.68 80.6515 342.851 78.456Z" fill="black"/>
<path d="M277.7 417.791C276.587 418.958 275.593 420.048 274.287 418.998C273.012 417.974 273.647 416.664 274.432 415.647C275.739 413.952 276.85 412.005 279.373 411.07C280.626 413.735 278.902 415.547 277.7 417.791Z" fill="black"/>
<path d="M672.93 243.243C670.745 242.479 668.425 243.373 666.957 241.442C670.036 239.476 673.661 239.75 677.83 242.253C676.707 244.328 674.873 243.296 672.93 243.243Z" fill="black"/>
<path d="M203.979 186.831C206.708 187.045 208.855 187.724 210.468 190.359C207.519 191.439 204.911 190.944 202.738 189.686C200.201 188.216 201.886 187.355 203.979 186.831Z" fill="black"/>
<path d="M309.291 470.058C308.732 471.892 308.363 473.458 305.72 474.24C306.456 468.655 309.766 464.762 312 460.406C313.114 464.106 310.481 466.688 309.291 470.058Z" fill="black"/>
<path d="M377.476 88.9183C379.042 91.7498 380.552 94.2792 380.497 98.5608C377.422 94.7733 375.747 91.6375 374.696 88.2118C376.066 87.0536 376.603 88.1083 377.476 88.9183Z" fill="black"/>
<path d="M403.967 555.037C404.476 555.623 404.797 555.983 404.954 556.403C405.503 557.883 406.048 559.63 404.251 560.431C402.619 561.158 401.7 559.752 401.376 558.32C400.955 556.459 400.53 554.388 403.967 555.037Z" fill="black"/>
<path d="M309.153 428.161C310.748 427.749 311.983 427.659 313.296 428.529C313.24 431.21 311.274 432.35 309.215 433.601C307.128 431.849 307.123 430.155 309.153 428.161Z" fill="black"/>
<path d="M604.074 103.889C605.185 102.277 605.812 100.497 607.993 100.754C607.86 104.644 607.728 104.85 604.016 107.037C602.748 106.124 603.538 105.145 604.074 103.889Z" fill="black"/>
<path d="M318.019 660.701C316.855 662.206 315.691 662.929 314.316 661.598C313.542 660.849 313.851 659.845 314.309 658.984C314.953 657.773 315.99 656.936 317.35 657.35C319.005 657.853 318.68 659.195 318.019 660.701Z" fill="black"/>
<path d="M179.103 200.376C177.282 199.887 175.499 199.45 176.7 197.334C177.401 196.098 178.839 195.987 179.873 196.942C181.158 198.128 181.744 199.513 179.103 200.376Z" fill="black"/>
<path d="M178.46 208.298C176.274 208.055 174.118 208.372 172.97 205.82C175.283 204.528 177.341 205.107 179.214 206.096C180.829 206.95 180.03 207.748 178.46 208.298Z" fill="black"/>
<path d="M321.507 476.602C320.947 475.237 320.644 474.11 321.963 473.552C323.176 473.039 323.982 473.743 324.559 474.791C325.272 476.088 326.258 477.319 325.632 478.926C323.512 479.481 322.756 477.942 321.507 476.602Z" fill="black"/>
</svg>
