<svg width="604" height="396" viewBox="0 0 604 396" fill="none" xmlns="http://www.w3.org/2000/svg">
<path d="M122.579 377.158C179.813 377.158 226.211 330.76 226.211 273.526C226.211 216.292 179.813 169.895 122.579 169.895C65.3448 169.895 18.9474 216.292 18.9474 273.526C18.9474 330.76 65.3448 377.158 122.579 377.158Z" fill="#27A0D6"/>
<path d="M122.579 396C55.0489 396 0.105286 341.056 0.105286 273.526C0.105286 205.996 55.0489 151.053 122.579 151.053C190.109 151.053 245.053 205.996 245.053 273.526C245.053 341.056 190.109 396 122.579 396ZM122.579 188.737C75.8317 188.737 37.7895 226.779 37.7895 273.526C37.7895 320.274 75.8317 358.316 122.579 358.316C169.326 358.316 207.368 320.274 207.368 273.526C207.368 226.779 169.326 188.737 122.579 188.737Z" fill="#27A0D6"/>
<path d="M442.895 377.158C500.129 377.158 546.526 330.76 546.526 273.526C546.526 216.292 500.129 169.895 442.895 169.895C385.661 169.895 339.263 216.292 339.263 273.526C339.263 330.76 385.661 377.158 442.895 377.158Z" fill="#8FB2FF"/>
<path d="M442.895 396C375.365 396 320.421 341.056 320.421 273.526C320.421 205.996 375.365 151.053 442.895 151.053C510.425 151.053 565.368 205.996 565.368 273.526C565.368 341.056 510.425 396 442.895 396ZM442.895 188.737C396.148 188.737 358.105 226.779 358.105 273.526C358.105 320.274 396.148 358.316 442.895 358.316C489.642 358.316 527.684 320.274 527.684 273.526C527.684 226.779 489.642 188.737 442.895 188.737Z" fill="#8FB2FF"/>
<path d="M18.9474 282.947C8.52771 282.947 0.105286 274.525 0.105286 264.105C0.105286 118.644 118.434 0.315796 263.895 0.315796C274.314 0.315796 282.737 8.73822 282.737 19.1579C282.737 29.5776 274.314 38 263.895 38C139.217 38 37.7895 139.427 37.7895 264.105C37.7895 274.525 29.3671 282.947 18.9474 282.947Z" fill="#27A0D6"/>
<path d="M339.263 282.947C328.844 282.947 320.421 274.525 320.421 264.105C320.421 118.644 438.75 0.315796 584.211 0.315796C594.63 0.315796 603.053 8.73822 603.053 19.1579C603.053 29.5776 594.63 38 584.211 38C459.532 38 358.105 139.427 358.105 264.105C358.105 274.525 349.683 282.947 339.263 282.947Z" fill="#8FB2FF"/>
</svg>
