<svg width="758" height="449" viewBox="0 0 758 449" fill="none" xmlns="http://www.w3.org/2000/svg">
<path d="M553.236 342.161C553.876 343.676 556.002 344.343 555.82 346.38C553.898 347.47 552.653 346.094 551.416 345.337C541.752 339.425 531.94 333.742 522.869 326.902C519.632 324.461 515.574 323.952 511.784 322.987C506.421 321.622 501.161 320.069 496.095 317.806C493.643 316.711 491.297 314.939 488.261 317.35C486.703 318.588 479.557 314.14 478.46 311.121C476.85 306.691 472.765 306.028 469.361 304.289C467.751 303.466 466.607 304.31 466.022 305.857C465.407 307.485 464.528 308.921 462.696 310.139C468.483 314.836 476.513 316.382 479.154 324.93C470.643 323.705 466.597 313.482 457.207 315.232C457.316 319.032 459.715 320.879 461.91 322.809C463.332 324.06 465.196 325.085 465.454 327.085C466.767 337.255 473.806 344.038 480.343 350.636C490.887 361.28 499.957 373.32 511.37 383.123C512.843 384.389 514.639 385.734 514.179 388.395C511.771 389.96 510.071 388.362 508.458 386.939C503.821 382.848 500.091 377.919 496.107 373.236C488.812 364.662 480.264 357.407 471.925 349.927C470.415 348.573 468.673 347.459 466.911 349.108C464.791 351.091 467.057 352.432 468.107 353.783C478.48 367.12 489.98 379.501 500.915 392.363C502.29 393.98 503.914 395.481 503.966 398.044C500.906 398.71 499.623 396.518 498.045 395.243C492.35 390.641 488.374 384.448 483.429 379.146C480.739 376.262 477.959 373.459 475.162 370.677C473.187 368.713 471.635 369.112 470.578 371.458C470.928 373.112 472.189 373.037 473.181 373.424C473.897 373.704 474.834 374.004 475.165 374.584C476.476 376.883 472.897 379.596 475.844 381.96C478.891 384.404 476.761 386.626 474.244 389.413C480.796 390.315 480.177 394.954 480.357 399.204C479.433 400.621 477.251 399.985 476.268 401.97C478.093 404.769 476.668 408.14 477.106 411.671C474.499 412.682 471.861 413.769 473.482 417.651C474.516 420.125 475.954 422.803 474.054 425.577C471.449 425.556 471.617 422.688 469.542 421.876C465.462 425.522 468.512 430.814 466.753 435.33C463.115 433.991 459.697 435.496 456.339 436.397C451.014 437.827 455.972 442.495 454.115 445.218C451.105 445.549 450.951 443.042 450.201 441.324C449.3 439.259 448.699 437.106 445.77 437.231C442.826 437.355 442.25 439.407 441.862 441.705C441.568 443.445 441.165 445.134 439.212 445.895C435.81 444.999 437.113 439.739 432.449 439.274C431.384 444.088 426.365 445.027 423.299 448.11C420.384 446.372 422.901 443.359 421.301 441.582C420.049 440.766 419.12 441.811 418.073 441.933C415.533 442.23 414.132 441.264 415.461 438.768C416.565 436.694 416.312 435.162 414.776 433.699C413.406 432.395 411.588 431.863 409.971 432.819C406.077 435.119 403.102 432.192 401.321 430.246C396.96 425.48 391.887 421.616 387.105 417.399C382.61 413.435 382.469 413.614 387.108 409.976C387.414 409.735 387.47 409.175 387.659 408.723C385.669 406.712 382.568 409.105 380.664 406.868C381.205 404.481 383.464 404.577 385.019 403.738C386.021 403.197 387.05 402.688 387.083 401.397C387.123 399.818 385.906 399.15 384.668 398.908C382.831 398.548 380.937 398.455 379.062 398.315C377.073 398.166 374.908 398.592 373.389 396.182C374.935 394.411 377.192 394.454 379.195 393.896C380.786 393.452 383.06 393.568 383.041 391.206C383.024 389.131 381.179 388.528 379.419 388.069C378.703 387.882 378.051 387.449 377.193 387.044C378.922 383.266 378.114 379.91 376.078 376.743C375.369 375.639 374.402 374.774 372.977 374.941C371.503 375.114 370.792 376.27 370.567 377.535C369.958 380.942 368.997 384.394 369.1 387.8C369.346 395.895 366.787 403.66 366.722 411.69C366.718 412.082 366.294 412.472 366.051 412.89C363.865 412.492 364.398 410.731 364.46 409.531C365.097 397.179 362.765 385.067 361.628 372.859C361.336 369.723 359.394 367.812 356.577 367.395C353.367 366.918 353.457 370.051 353.008 371.979C351.735 377.452 352.868 383.26 350.808 388.669C350.426 389.67 350.574 390.879 349.192 391.722C347.563 391.16 346.132 389.752 343.925 389.709C337.211 389.578 335.19 390.956 333.879 397.603C333.542 399.313 334.226 401.638 331.318 401.709C329.813 400.367 331.216 399.019 331.214 397.703C331.211 396.29 331.352 394.877 331.435 393.388C329.665 392.639 327.813 392.146 326.299 391.144C324.146 389.719 322.292 389.649 320.271 391.248C318.143 392.932 317.255 392.573 314.791 390.457C310.801 387.029 311.693 380.874 306.484 378.515C302.707 376.804 298.582 375.921 294.919 373.087C294.69 371.429 296.415 369.854 296.794 367.879C297.14 366.078 298.242 363.851 296.163 362.721C293.907 361.496 292.805 363.762 291.808 365.271C288.59 370.144 285.615 375.164 283.084 380.44C282.363 381.945 281.957 383.749 280.162 384.49C277.976 383.151 279.296 381.725 279.81 380.342C282.224 373.837 284.834 367.39 286.373 360.601C286.95 358.057 287.634 355.437 286.379 352.343C280.861 354.507 280.529 361.902 273.677 363.792C277.538 354.916 286.609 348.812 283.476 338.087C280.043 338.428 277.995 340.563 276.141 342.893C272.676 347.249 268.618 350.967 264.211 354.331C262.724 355.466 261.217 356.549 258.487 356.399C259.758 350.126 267.273 350.232 268.791 345.415C270.373 340.393 275.052 338.023 277.861 334.291C276.355 332.4 274.712 334.474 273.255 332.845C271.815 330.813 275.025 329.338 274.735 327.114C271.66 324.788 268.761 325.052 265.212 326.712C255.313 331.342 245.69 336.328 237.272 343.403C236.239 344.271 235.134 345.362 233.276 344.526C232.447 342.028 234.538 340.907 235.974 339.725C241.455 335.211 247.104 330.902 252.583 326.387C255.01 324.387 257.236 322.131 259.453 319.892C260.839 318.491 262.034 316.757 260.227 314.956C258.562 313.297 256.512 312.508 254.279 314.162C252.883 315.195 251.575 316.374 250.084 317.241C248.259 318.302 246.568 320.031 243.856 319.124C243.684 315.886 247.556 314.511 247.609 311.191C244.334 310.627 241.462 313.308 238.025 311.858C237.874 310.273 238.872 307.731 235.06 307.937C238.832 303.949 243.906 302.76 246.366 298.68C246.046 296.418 243.45 297.332 242.649 295.106C243.247 292.4 247.254 290.322 246.195 286.369C240.302 284.011 233.783 287.937 227.159 284.565C231.358 280.509 237.223 284.163 240.461 279.239C240.333 278.49 240.084 277.029 239.709 274.83C234.735 277.78 229.956 280.282 224.593 280.675C223.736 278.663 225.668 278.619 225.884 277.591C225.653 277.453 225.425 277.202 225.192 277.197C212.974 276.94 201.609 281.047 190.164 284.429C185.632 285.768 181.102 285.299 176.638 286.149C176.349 286.204 175.861 286.188 175.741 286.014C171.851 280.387 167.131 284.688 162.757 284.91C160.12 279.849 154.339 279.339 150.138 275.724C150.738 273.039 148.752 270.387 148.1 267.502C146.558 260.673 146.144 253.432 150.684 247.328C152.512 244.869 153.076 240.816 156.292 240.115C162.469 238.769 168.214 234.254 174.912 236.552C180.27 238.39 185.51 240.695 190.061 244.232C190.301 244.418 190.637 244.715 190.628 244.949C190.403 250.734 195.097 255.672 193.32 261.813C192.439 264.854 193.149 268.141 191.488 271.271C190.378 273.364 189.584 275.368 187.165 276.262C188.032 279.427 190.164 279.354 192.438 279.044C195.566 278.618 197.225 277.016 196.175 272.607C200.879 275.879 205.026 274.451 209.234 274.205C212.427 274.018 213.54 271.056 216.536 270.487C223.489 269.167 230.305 267.04 237.101 264.992C243.206 263.151 243.719 262.191 243.345 255.628C238.011 254.476 233.778 259.224 228.512 258.63C228.029 256.549 230.568 256.477 230.935 254.959C229.746 253.249 226.472 255.597 226.107 252.415C225.635 248.304 230.214 248.611 231.952 245.663C226.654 242.504 222.769 237.879 215.482 237.82C204.657 237.733 193.907 235.382 183.008 235.202C181.274 235.174 178.634 234.824 178.796 232.376C178.979 229.611 181.655 229.775 183.637 229.989C187.235 230.377 190.871 231.759 194.351 231.395C196.353 231.186 198.122 229.106 200.171 231.941C201.118 230.139 201.818 228.807 202.686 227.152C198.153 225.819 192.729 228.507 188.8 223.799C191.797 221.677 194.805 222.564 197.63 222.557C203.625 222.541 209.622 222.766 215.615 222.677C218.433 222.635 221.639 222.605 221.568 218.379C221.499 214.305 218.462 214.766 215.791 214.642C212.072 214.469 208.22 214.802 204.792 211.865C206.006 211.098 207.053 210.453 208.083 209.78C209.336 208.96 211.419 208.809 211.297 206.778C211.162 204.53 209.245 203.625 207.411 203.156C201.162 201.559 195.248 198.692 188.759 198.052C180.093 197.199 172.307 192.538 163.477 192.349C161.63 192.309 160.031 191.072 160.46 188.912C160.904 186.676 162.87 187.279 164.349 187.508C166.522 187.845 168.691 188.302 170.801 188.913C173.712 189.756 176.354 189.627 179.28 187.177C174.441 183.385 168.804 182.72 163.624 182.747C156.651 182.784 149.727 182.539 142.918 181.436C122.673 178.156 102.039 177.677 82.0151 172.872C56.0873 166.65 29.8615 162.044 3.45483 158.421C2.20807 158.25 0.91098 158.191 0 156.714C1.57935 153.464 4.25791 154.848 6.73374 155.202C34.3269 159.153 61.4095 166.391 89.2556 168.581C114.422 170.561 139.662 171.181 164.921 170.774C169.308 170.703 173.736 171.356 178.092 172.018C180.843 172.436 182.686 171.943 183.758 169.219C184.628 167.009 186.676 166.015 188.958 164.905C186.487 163.538 184.7 162.667 181.742 164.188C178.981 165.608 175.588 164.725 173.67 161.096C177.012 157.238 179.936 152.628 186.2 156.618C186.713 156.945 187.692 156.572 188.448 156.479C194.784 155.699 196.58 157.236 196.473 163.89C206.369 163.621 215.845 161.342 225.929 159.149C224.14 156.75 222.188 156.946 220.393 156.907C216.419 156.821 212.516 156.235 208.765 154.987C206.123 154.108 202.462 153.837 204.566 149.148C205.237 147.652 203.141 146.919 202.004 146.201C196.537 142.751 190.481 141.151 184.081 140.757C178.412 140.408 172.728 140.245 167.072 139.752C164.212 139.503 161.072 139.451 159.158 136.569C160.387 134.147 162.418 134.522 164.181 134.865C170.257 136.048 176.288 136.356 182.509 135.835C189.702 135.233 196.441 138.1 203.268 140.024C218.454 144.305 233.766 144.462 249.126 141.1C251.498 140.581 254.149 140.141 254.928 138.234C251.93 129.212 242.69 128.652 237.115 123.2C245.391 120.845 251.946 126.949 259.596 127.205C252.175 122.11 242.228 123.324 235.212 117.136C240.756 116.204 245.611 121.219 251.262 118.967C251.721 116.578 249.961 115.813 248.646 114.809C246.835 113.427 243.822 113.525 243.81 109.898C243.806 108.986 240.674 108.517 238.659 108.822C235.303 109.33 233.516 108.342 230.9 105.092C232.252 103.364 234.655 105.087 236.128 103.442C237.099 101.319 234.495 100.302 234.368 98.0613C237.856 96.6707 241.021 98.4005 243.886 99.8625C248.715 102.327 253.986 103.442 258.951 105.455C261.578 106.52 264.372 106.355 267.991 104.762C256.084 97.3132 241.912 97.2199 230.826 88.7095C233.939 86.8533 236.11 88.1339 238.164 88.9427C251.527 94.2058 265.01 99.048 279.132 101.941C284.861 103.114 290.595 104.253 296.439 104.348C298.743 104.386 302.458 106.175 302.321 101.099C302.295 100.096 304.477 100.997 305.339 99.0245C300.194 96.7933 295.091 94.7641 289.306 95.067C285.362 95.2735 285.038 95.0828 283.592 91.243C285.62 89.2686 287.691 90.8837 289.739 91.1986C294.147 91.8765 298.443 95.4812 303.057 91.6803C303.383 91.4111 304.477 91.561 304.826 91.9072C309.685 96.726 317.344 93.9147 322.336 98.3497C322.574 98.5606 323.228 98.3031 323.623 98.2693C328.479 91.632 319.001 88.9786 319.18 83.3056C324.002 83.4599 324.418 89.0679 328.318 89.6426C329.548 88.0724 327.921 86.0872 329.336 84.6105C331.382 84.8858 331.896 86.7443 332.812 88.1117C334.142 90.0959 335.581 91.9713 337.516 93.3786C338.635 94.1931 339.897 95.2874 341.36 94.2476C342.902 93.1511 342.774 91.5557 342.082 89.9866C339.843 84.9121 336.792 80.2962 333.855 75.6232C331.504 71.8842 328.955 68.2696 326.624 64.5188C325.583 62.8439 324.529 61.0019 325.87 58.7806C328.641 58.9472 329.36 60.9755 330.183 62.776C333.225 69.4342 337.338 75.3976 342.025 80.9695C343.518 82.7441 345.38 85.0387 347.933 83.4558C350.478 81.8778 350.895 79.0578 349.534 76.3121C348.345 73.9141 346.951 71.6165 345.617 69.2918C344.268 66.9402 342.95 64.691 344.302 61.7669C345.289 59.6306 343.692 57.8745 342.806 56.0527C341.897 54.1853 340.142 52.5597 340.885 49.2376C347.35 55.26 348.239 64.0621 353.924 69.9324C356.261 68.3062 356.672 66.435 356.392 64.0404C355.091 52.9404 351.49 42.5984 346.579 32.6191C344.635 28.6689 343.132 24.499 341.498 20.4011C340.924 18.9614 340.416 17.4445 341.215 15.659C343.376 16.2804 343.533 18.2234 344.059 19.6756C346.454 26.2948 350.248 31.9394 354.672 37.4227C359.524 43.4376 360.822 51.4761 364.822 58.079C365.037 58.4341 365.06 59.0728 364.897 59.4654C360.457 70.1646 367.54 75.5603 375.371 81.9289C374.221 76.4191 371.529 72.7254 370.226 68.5389C369.619 66.5864 366.624 63.7436 370.059 62.5487C373.308 61.4188 372.962 65.2371 373.635 67.274C374.622 70.2631 375.231 73.4386 376.655 76.1976C377.452 77.7414 377.836 81.429 381.528 79.1778C382.274 78.7232 382.957 80.1609 383.542 80.8678C384.652 82.2079 385.763 83.9539 387.773 82.9665C389.722 82.0098 389.032 79.9249 388.95 78.2622C388.829 75.852 387.63 73.4009 389.473 70.4895C393.044 73.5042 390.468 77.6312 391.813 80.2555C400.348 82.7724 402.183 89.9169 404.341 97.1597C414.109 91.9532 424.48 87.9461 432.903 81.425C438.977 76.7231 443.086 69.1208 447.134 62.1458C448.31 60.1208 449.311 57.8936 452.516 57.4671C453.391 61.5854 451.35 64.7603 449.301 67.7347C445.636 73.0553 441.652 78.1553 437.875 83.4006C436.699 85.0337 435.317 86.6375 435.334 89.7789C441.293 90.6222 447.304 90.5371 453.299 89.5555C456.546 89.0239 459.588 87.8912 462.923 89.7066C465.022 90.8491 466.736 88.8456 468.315 87.5918C476.983 80.7083 486.23 74.6717 495.618 68.8385C497.328 67.7758 499.059 66.7118 502.181 66.4884C498.857 73.906 490.211 75.4847 487.355 82.7481C490.021 82.973 491.779 81.6056 493.571 80.584C503.166 75.115 512.641 69.446 523.12 65.6985C526.422 64.5178 528.841 61.8088 531.404 59.4849C538.184 53.3371 544.891 47.1083 551.625 40.9096C552.205 40.3752 552.903 39.9119 553.325 39.2699C561.12 27.3997 573.208 20.2763 583.82 11.5041C587.207 8.70441 590.042 5.24396 593.2 2.15895C594.801 0.595459 596.813 -1.24066 598.792 1.14944C600.528 3.24706 598.67 4.95639 596.959 6.21129C586.629 13.7865 577.63 22.9336 567.671 30.934C563.956 33.9185 561.483 37.6462 559.413 41.7239C555.092 50.2367 549.157 57.1236 540.758 61.9135C534.045 65.7418 527.726 70.2796 520.925 73.9306C513.65 77.8365 511.114 84.6704 508.591 91.6607C507.874 93.6474 508.667 95.4971 510.123 96.8133C511.783 98.3137 513.461 97.0161 514.886 96.1694C521.94 91.9791 528.909 87.6463 535.967 83.4644C537.482 82.5669 538.966 80.9994 541.895 82.431C531.458 93.808 518.167 101.112 505.725 110.97C511.97 111.558 516.692 109.488 521.526 108.565C532.762 106.42 544.041 105.591 555.419 106.324C561.517 106.716 566.825 104.423 572.29 102.358C583.409 98.1547 593.239 91.3291 604.199 86.8365C606.763 85.7852 610.58 82.936 612.071 86.55C613.776 90.6808 608.711 91.1625 606.119 92.0969C599.835 94.3626 593.763 97.043 588.33 100.846C576.407 109.192 562.184 112.583 549.526 119.306C546.915 120.693 543.992 121.566 541.5 123.994C544.54 125.811 547.393 123 550.726 124.408C544.306 129.238 536.436 131.356 531.189 136.889C531.476 138.459 532.343 138.934 533.289 139.04C545.892 140.455 558.415 142.254 570.648 145.774C573.221 146.514 575.95 146.125 578.592 145.332C585.458 143.272 592.268 140.235 599.27 139.659C605.077 139.182 610.501 137.368 616.157 136.836C618.27 137.552 615.735 139.584 617.483 140.534C625.709 139.75 634.184 138.942 643.064 138.095C642.578 141.655 640.555 141.695 638.786 141.928C626.296 143.571 613.97 146.041 601.674 148.783C584.024 152.719 566.037 155.076 548.592 159.998C545.021 161.005 541.391 160.675 537.766 160.455C535.704 160.33 533.65 160.297 531.792 161.425C530.31 162.324 529.493 163.606 529.794 165.37C530.081 167.05 531.364 167.644 532.876 167.797C533.972 167.909 535.084 167.966 536.183 167.915C547.523 167.379 558.857 166.668 570.202 166.326C575.864 166.155 581.625 166.123 587.202 166.956C596.266 168.31 605.155 166.996 614.085 166.222C622.69 165.477 631.488 165.158 639.231 168.915C651.942 175.083 665.216 174.015 678.264 172.869C698.583 171.083 718.858 170.722 739.2 171.285C742.82 171.385 746.449 171.134 750.074 171.048C751.017 171.026 751.998 170.84 752.897 171.03C754.99 171.474 757.961 171.562 757.718 174.431C757.504 176.973 754.707 176.912 752.714 176.767C732.849 175.327 712.943 176.203 693.132 176.971C674.427 177.695 655.779 180.18 636.989 179.823C630.846 179.706 624.698 179.711 618.562 179.447C612.05 179.167 605.658 179.751 599.292 181.119C596.951 181.622 594.624 183.093 592.036 181.344C591.08 180.699 590.06 181.854 589.354 183.016C595.685 185.244 589.796 187.323 589.01 190.202C602.408 193.806 616.459 191.416 629.697 195.372C624.312 197.777 618.681 196.567 612.855 196.616C615.238 198.072 618.484 196.969 619.889 199.766C619.558 201.665 618.155 202.017 616.71 202.059C607.581 202.322 598.546 201.519 589.541 199.954C579.126 198.144 568.602 197.226 558.054 198.369C554.5 198.754 551.047 200.167 547.58 201.217C544.548 202.134 543.191 204.871 543.5 207.423C543.888 210.624 547.108 210.323 549.627 210.278C552.652 210.224 555.631 208.238 558.855 209.88C557.084 217.424 551.142 218.635 544.753 219.285C546.871 223.791 551.899 222.65 554.598 225.125C554.094 227.231 552.029 226.31 550.923 227.72C569.937 233.917 589.934 231.965 609.904 235.327C607.976 238.009 606.124 237.444 604.591 237.376C592.144 236.818 579.66 236.476 567.324 234.703C561.596 233.88 557.096 237.755 551.39 237.542C557.159 238.933 560.094 244.169 565.031 246.268C567.579 247.352 567.572 248.638 565.581 250.357C573.837 255.807 582.876 258.135 591.902 260.27C597.402 261.571 602.386 264.681 608.278 264.654C609.76 264.647 611.032 266.033 611.219 268.565C601.61 269.478 593.921 260.841 584.347 263.066C583.071 264.843 585.412 265.911 584.96 268.054C578.192 268.631 571.916 264.483 564.083 265.054C572.698 275.314 585.979 276.114 595.069 283.993C581.358 281.757 568.907 275.138 554.896 271.161C556.1 276.72 559.59 279.234 562.832 281.389C575.264 289.655 586.945 299.217 601.181 304.494C603.541 305.369 605.937 306.15 608.308 306.997C610.342 307.725 612.571 308.831 611.412 311.292C610.316 313.619 607.792 313.064 606.024 311.878C602.332 309.402 598.164 307.816 594.423 305.511C581.614 297.621 567.465 294.132 552.755 292.586C548.751 292.165 545.196 290.409 541.296 289.839C539.144 289.525 536.965 288.733 534.809 291.153C542.782 299.471 554.606 301.745 563.778 309.481C559.881 310.969 556.955 309.523 554.146 308.682C548.079 306.866 542.487 303.906 536.883 300.98C532.988 298.947 528.987 296.699 524.588 300.102C523.569 300.89 522.565 300.178 521.602 299.496C516.343 295.769 510.755 297.678 505.658 299.44C502.611 300.494 504.417 303.494 506.346 304.571C516.372 310.171 523.608 319.353 533.322 325.299C538.847 328.681 543.274 333.596 549.149 336.467C551.389 337.562 551.184 340.293 553.001 342.014C553.256 342.187 553.236 342.161 553.236 342.161ZM467.27 360.405C462.97 356.119 458.536 352.011 453.515 348.878C452.21 350.227 452.232 351.102 452.698 351.709C456.675 356.898 460.704 362.053 465.485 366.547C466.516 367.516 467.766 367.439 468.962 366.71C469.662 366.283 470.257 365.731 470.112 364.844C469.847 363.221 468.699 362.097 467.27 360.405ZM445.313 351.466C446.577 350.136 445.767 349.082 444.636 348.478C443.265 347.748 441.947 347.999 441.292 349.786C441.997 351.296 443.322 351.545 445.313 351.466Z" fill="#8FB2FF"/>
<path d="M64.3038 271.816C74.5918 274.814 77.5175 279.69 74.4941 288.15C72.6543 293.298 64.5816 296.883 59.3107 294.893C54.3394 293.016 47.3554 278.641 49.0296 272.872C52.1975 277.346 55.3598 275.176 58.5307 273.159C60.171 272.115 61.9522 271.61 64.3038 271.816Z" fill="#8FB2FF"/>
<path d="M553.267 342.198C553.062 340.348 553.854 339.177 555.656 340.138C559.357 342.113 563.347 343.723 566.062 346.599C566.45 348.879 564.222 347.761 563.965 349.009C565.373 351.253 567.744 352.213 569.996 353.286C572.023 354.253 573.982 355.215 574.778 357.539C575.21 358.798 575.435 360.07 574.166 360.939C573.143 361.639 571.926 361.444 571.099 360.635C567.392 357.008 563.799 353.281 559.539 350.244C557.562 348.834 559.71 347.584 560.416 346.001C558.21 344.775 556.038 343.567 553.55 342.26C553.236 342.161 553.256 342.187 553.267 342.198Z" fill="#8FB2FF"/>
<path d="M605.025 45.4839C595.912 51.2282 587.379 57.2949 577.446 60.9938C588.334 51.865 600.384 44.5491 613.424 37.2019C612.067 40.8016 612.067 40.8016 605.025 45.4839Z" fill="#8FB2FF"/>
<path d="M647.596 203.952C641.805 204.589 636.545 204.006 631.51 202.113C629.383 201.313 627.89 202.555 626.117 202.968C624.735 203.289 623.058 203.687 622.584 201.81C622.166 200.158 623.781 199.861 624.929 199.426C628.452 198.091 632.076 198.692 635.681 198.885C641.602 199.202 647.521 199.516 653.458 201.174C652.207 204.063 649.884 203.491 647.596 203.952Z" fill="#8FB2FF"/>
<path d="M262.513 15.0604C262.078 11.361 263.378 8.7662 266.375 7.3991C269.062 6.17376 271.562 6.85375 273.746 9.67336C271.465 10.3342 268.257 10.0362 268.539 13.4416C268.807 16.6662 271.211 17.1345 274.653 16.1821C268.217 22.5593 265.777 22.2328 262.513 15.0604Z" fill="#8FB2FF"/>
<path d="M226.859 407.243C229.597 404.929 232.29 404.682 235.007 406.278C236.849 407.359 237.295 409.246 236.951 411.236C236.499 413.852 234.708 415.375 232.275 416.027C227.92 417.194 225.565 413.629 226.859 407.243Z" fill="#8FB2FF"/>
<path d="M606.281 288.38C603.715 287.405 600.962 287.406 599.239 283.682C606.992 285.014 613.66 286.818 620.57 289.444C617.454 291.784 617.454 291.784 606.281 288.38Z" fill="#8FB2FF"/>
<path d="M273 365.794C273.946 368.618 272.782 370.501 270.216 370.179C267.591 369.85 263.799 370.405 263.482 366.07C263.36 364.388 264.394 363.146 265.804 362.282C267.458 361.269 268.706 361.954 269.905 363.208C270.753 364.094 271.769 364.82 273 365.794Z" fill="#8FB2FF"/>
<path d="M346.895 408.947C350.281 413.348 354.094 417.157 354.801 423.093C351.578 421.944 343.946 412.416 343.95 409.869C343.954 407.788 345.368 408.291 346.895 408.947Z" fill="#8FB2FF"/>
<path d="M226.006 92.4189C227.277 93.2323 228.773 93.3767 228.739 95.7528C223.057 94.9913 218.003 93.4351 213.276 89.6948C216.638 88.0714 216.638 88.0714 226.006 92.4189Z" fill="#8FB2FF"/>
<path d="M490.51 350.257C488.39 349.704 486.334 349.696 485.656 347.218C488.055 344.83 490.977 345.175 493.899 345.704C495.539 346 497.054 346.734 496.811 348.709C496.554 350.806 494.822 350.812 493.195 350.678C492.417 350.614 491.648 350.449 490.51 350.257Z" fill="#8FB2FF"/>
<path d="M563.792 214.375C569.788 213.545 575.689 212.841 581.655 214.396C581.008 216.232 579.548 216.258 578.49 216.156C573.556 215.68 568.405 217.266 563.792 214.375Z" fill="#8FB2FF"/>
<path d="M567.039 69.1485C563.586 70.7975 560.778 73.1019 555.888 73.9815C559.217 69.9988 562.355 67.7004 565.78 65.7696C566.736 65.2312 568.041 65.0511 568.632 66.3045C569.202 67.5159 568.273 68.3196 567.039 69.1485Z" fill="#8FB2FF"/>
<path d="M351.258 397.461C351.125 400.036 350.271 402.124 347.738 401.548C345.286 400.991 345.406 398.569 345.798 396.517C346.038 395.257 346.694 394.049 348.18 394.066C350.067 394.087 350.672 395.627 351.258 397.461Z" fill="#8FB2FF"/>
<path d="M597.894 272.235C595.923 271.266 593.416 271.757 592.438 267.992C596.92 269.447 601.272 268.165 604.855 271.765C602.578 274.306 600.352 272.56 597.894 272.235Z" fill="#8FB2FF"/>
<path d="M332.462 39.9478C331.925 38.5263 330.805 37.2445 332.528 36.4257C333.728 35.856 334.667 36.8245 335.293 37.7021C336.804 39.8183 338.533 41.869 338.831 45.0642C335.425 44.7306 334.292 42.1432 332.462 39.9478Z" fill="#8FB2FF"/>
<path d="M267.311 379.283C266.198 380.45 265.205 381.54 263.898 380.49C262.624 379.465 263.259 378.156 264.043 377.139C265.35 375.444 266.462 373.496 268.985 372.562C270.238 375.227 268.514 377.039 267.311 379.283Z" fill="#8FB2FF"/>
<path d="M662.541 204.735C660.357 203.97 658.037 204.865 656.568 202.934C659.647 200.968 663.273 201.241 667.441 203.745C666.318 205.82 664.484 204.788 662.541 204.735Z" fill="#8FB2FF"/>
<path d="M193.591 148.322C196.32 148.537 198.467 149.216 200.08 151.851C197.13 152.931 194.522 152.436 192.35 151.177C189.813 149.708 191.497 148.847 193.591 148.322Z" fill="#8FB2FF"/>
<path d="M298.902 431.549C298.343 433.384 297.975 434.95 295.331 435.731C296.068 430.147 299.378 426.254 301.612 421.898C302.725 425.597 300.093 428.18 298.902 431.549Z" fill="#8FB2FF"/>
<path d="M367.088 50.4101C368.654 53.2415 370.163 55.7709 370.108 60.0525C367.033 56.265 365.358 53.1293 364.308 49.7036C365.677 48.5453 366.215 49.6 367.088 50.4101Z" fill="#8FB2FF"/>
<path d="M298.764 389.652C300.36 389.241 301.595 389.151 302.908 390.021C302.852 392.701 300.885 393.842 298.826 395.093C296.739 393.341 296.735 391.647 298.764 389.652Z" fill="#8FB2FF"/>
<path d="M593.686 65.3808C594.797 63.7683 595.424 61.9891 597.604 62.2458C597.472 66.1358 597.34 66.3419 593.627 68.5288C592.36 67.6162 593.149 66.6369 593.686 65.3808Z" fill="#8FB2FF"/>
<path d="M168.715 161.867C166.894 161.378 165.111 160.942 166.312 158.825C167.013 157.589 168.45 157.479 169.485 158.434C170.769 159.619 171.355 161.005 168.715 161.867Z" fill="#8FB2FF"/>
<path d="M168.072 169.79C165.886 169.546 163.729 169.864 162.582 167.312C164.894 166.019 166.953 166.598 168.825 167.588C170.44 168.442 169.642 169.24 168.072 169.79Z" fill="#8FB2FF"/>
<path d="M311.119 438.094C310.559 436.729 310.256 435.602 311.575 435.043C312.788 434.53 313.594 435.235 314.17 436.282C314.884 437.579 315.869 438.81 315.243 440.418C313.123 440.973 312.368 439.434 311.119 438.094Z" fill="#8FB2FF"/>
</svg>
