<svg width="887" height="464" viewBox="0 0 887 464" fill="none" xmlns="http://www.w3.org/2000/svg">
<path d="M807.187 9.58076C808.697 9.95165 811.411 10.0885 811.536 10.7286C813.342 20.0305 823.578 16.8723 828.171 22.0481C828.815 22.7728 831.522 21.6651 833.919 21.3099C833.318 26.0315 832.742 30.5581 832.165 35.0847C831.527 35.2459 830.889 35.4071 830.251 35.5683C831.857 36.8878 834.791 38.1723 834.827 39.5331C834.949 44.1906 837.08 46.9528 841.319 46.3479C843.6 46.0224 845.483 42.909 849.004 39.7428C851.874 39.1645 856.928 38.1465 863.073 36.9087C862.246 39.1323 861.797 40.3379 861.872 40.1375C866.063 44.5718 869.799 48.5245 873.536 52.4771C873.185 52.9135 872.834 53.3499 872.483 53.7863C877.167 54.3388 881.851 54.8913 886.743 55.4682C887.675 61.5878 882.412 62.0117 879.161 63.3212C862.205 70.1517 845.123 76.6752 828.006 83.0938C821.867 85.3958 815.506 87.1058 809.037 89.152C806.74 94.9535 813.453 103.573 803.019 106.831C807.77 112.606 808.225 117.887 803.177 123.298C801.955 124.609 802.218 127.204 801.469 129.078C799.293 134.525 797.735 140.479 794.367 145.089C792.474 147.679 787.211 149.581 783.948 149.014C777.763 147.94 775.167 149.345 775.047 156.356C774.915 157.769 775.048 158.39 775.181 159.011C775.011 159.429 774.991 159.854 775.016 161.037C774.409 166.481 772.15 169.494 766.802 169.812C765.923 170.136 765.404 170.547 764.78 170.99C764.675 171.021 764.684 171.241 764.285 171.386C762.717 172.663 761.546 173.795 760.032 174.902C759.689 174.879 759.019 175.037 758.44 174.986C744.011 175.893 740.52 178.093 741.365 185.324C744.72 184.558 748.077 183.8 752.766 182.74C751.423 185.429 750.783 186.71 749.92 188.438C754.71 188.092 759.61 187.739 764.491 187.923C765.336 189.5 766.085 191.304 767.082 191.454C772.489 192.265 777.957 192.668 785.226 193.394C782.445 190.845 780.909 189.438 780.021 188.624C781.318 186.584 782.587 184.589 784.505 181.571C787.469 181.36 791.738 181.055 796.007 180.75C796.007 180.75 796.047 180.601 796.006 181.041C796.545 182.425 797.124 183.369 797.703 184.312C797.703 184.312 797.633 184.469 797.734 184.844C798.204 185.458 798.573 185.697 798.942 185.937C800.764 192.259 802.703 198.551 804.368 204.914C805.599 209.617 806.8 214.372 807.419 219.181C808.104 224.511 808.112 229.929 808.343 234.038C782.481 240.747 758.513 246.965 734.545 253.183C734.574 253.563 734.603 253.944 734.632 254.324C736.452 254.649 738.271 254.975 741.619 255.575C738.783 257.53 737.161 259.478 735.245 259.831C725.254 261.671 715.143 262.879 705.17 264.8C701.536 265.499 698.262 267.936 694.641 268.874C692.094 269.534 689.238 269.002 684.789 269.002C679.43 273.896 671.442 276.998 662.121 276.871C660.353 276.847 658.561 278.557 655.731 279.662C653.211 279.768 651.739 279.678 650.268 279.588C650.268 279.588 650.251 279.619 650.195 279.137C647.816 277.17 645.492 275.687 643.431 274.371C640.568 277.459 638.408 279.788 636.249 282.116C636.249 282.116 636.355 282.385 635.82 282.273C633.383 284.062 631.481 285.963 629.578 287.864C623.255 287.864 616.932 287.864 611.088 287.864C610.033 290.421 609.213 292.41 607.521 294.398C603.72 292.438 600.79 290.48 597.584 287.93C595.512 281.547 593.625 275.782 591.971 269.95C591.429 268.04 590.546 265.207 591.439 264.082C595.89 258.477 593.839 252.816 591.819 247.479C586.237 232.733 586.919 233.317 573.059 238.011C572.421 238.227 571.702 238.237 571.017 238.273C555.379 239.094 539.721 239.651 524.109 240.817C515.261 241.479 506.423 242.802 497.711 244.498C493.781 245.262 490.17 247.662 485.782 249.233C479.904 249.146 474.657 249.146 469.087 249.146C469.449 251.819 469.653 253.322 469.368 254.834C461.874 254.396 454.869 253.947 447.406 253.477C446.339 253.451 445.729 253.447 444.83 253.084C442.891 252.955 441.241 253.186 439.103 253.37C430.873 250.903 423.225 248.079 414.822 249.91C413.085 250.288 411.114 249.592 409.171 248.874C406.426 246.961 393.258 249.161 391.646 251.37C391.311 251.829 391.5 252.67 390.957 253.118C387.644 252.674 384.822 252.448 381.42 252.177C375.973 252.987 371.105 253.842 365.456 254.833C365.115 255.301 364.026 258.354 362.463 258.621C359.111 259.192 355.514 258.325 352.022 258.047C351.589 256.198 351.2 254.532 350.387 251.054C348.722 253.95 346.748 256.38 347.141 256.858C350.833 261.335 347.649 264.866 345.48 268.793C339.378 270.324 333.79 271.694 327.575 272.933C324.458 272.772 321.89 272.34 319.491 272.794C313.145 273.997 306.871 275.584 299.95 277.038C293.768 277.95 288.205 278.843 282.304 279.644C281.74 279.609 281.514 279.664 280.936 279.628C280.357 279.615 280.128 279.694 279.387 279.704C277.842 279.689 276.811 279.744 275.142 279.797C268.997 280.669 263.49 281.544 257.376 282.414C252.683 283.347 248.605 284.326 244.507 285.211C236.509 286.938 228.508 288.657 220.491 290.294C215.07 291.402 209.62 292.364 203.636 293.354C198.58 294.339 193.44 294.324 189.694 296.602C182.302 301.099 178.669 298.931 176.918 290.388C176.378 290.823 175.838 291.259 175.298 291.694C175.917 294.824 176.536 297.954 177.251 301.57C170.213 301.407 170.754 295.313 168.788 291.411C164.116 295.821 159.39 300.028 161.604 307.25C161.577 307.164 161.68 307.311 161.202 307.185C159.9 304.615 159.077 302.172 158.043 299.102C154.646 300.801 151.153 302.548 147.177 304.305C145.648 305.261 144.602 306.206 143.584 307.159C143.612 307.167 143.603 307.11 143.014 307.122C138.156 308.487 133.886 309.839 129.14 311.162C126.187 310.105 123.711 309.077 121.238 308.045C116.623 310.453 114.441 319.166 108.479 314.352C104.637 316 102.104 317.859 99.4521 318.048C95.2447 318.346 95.4082 320.847 94.9551 323.74C94.216 323.884 93.9233 323.956 93.2208 323.944C92.2579 323.829 91.7049 323.799 90.7708 323.649C89.8598 323.513 89.3296 323.498 88.7995 323.482C88.7995 323.482 88.6518 322.829 88.594 322.096C88.4532 320.793 88.3704 320.222 88.2875 319.651C88.8176 312.391 89.832 305.108 89.4849 297.891C89.4122 296.378 84.0769 293.596 81.5961 294.006C73.9869 295.26 66.642 298.028 59.088 299.737C52.4079 301.248 45.5852 302.129 38.8254 303.288C38.2355 302.18 37.6455 301.072 37.0556 299.964C45.9337 290.701 54.8118 281.437 64.1032 271.742C57.7205 270.734 52.26 269.36 46.7477 269.104C33.9653 268.512 21.1587 268.36 8.35996 268.243C3.8392 268.201 1.96048 266.577 4.52361 262.517C6.56565 259.283 9.56649 256.67 11.8897 253.591C13.445 251.53 14.2304 248.838 15.9393 246.953C19.4624 243.068 23.3729 239.534 27.6823 235.308C20.8197 232.744 13.451 229.486 21.0579 220.653C14.7951 220.653 8.71841 220.653 2.64172 220.653C2.44054 220.096 2.23938 219.538 2.03821 218.981C7.40823 216.516 12.6025 213.503 18.1877 211.708C27.5514 208.698 29.0346 206.787 29.4355 196.357C29.6856 189.853 31.4962 183.381 31.4597 176.901C31.4139 168.778 30.1933 160.661 29.5154 152.948C23.3594 150.783 17.4704 149.754 12.818 146.786C8.06348 143.753 3.87792 139.257 0.674554 134.561C-1.4871 131.392 1.96578 129.334 5.11617 128.568C11.0975 127.112 17.1468 125.918 23.0809 124.296C25.9323 123.517 28.5855 122.012 31.3285 120.835C31.284 120.072 31.2394 119.309 31.1948 118.545C27.3182 117.123 23.4375 115.711 19.5665 114.273C17.4396 113.483 14.7961 113.175 13.3446 111.703C11.49 109.823 10.603 106.987 9.29906 104.564C11.5582 104.629 13.8175 104.69 16.0764 104.763C18.3007 104.834 20.5356 105.095 22.7466 104.959C29.1025 104.57 36.0435 105.446 41.6227 103.115C46.6711 101.005 54.7035 102.134 56.3512 93.7707C56.628 92.3658 59.3033 90.9786 61.1285 90.4044C78.7461 84.8622 96.329 79.1726 114.115 74.2199C122.596 71.8584 131.471 70.8425 140.218 69.5668C142.173 69.2817 144.518 70.1096 146.38 71.0358C152.247 73.9554 154.792 73.1448 158.241 66.7729C160.16 63.2263 172.442 63.525 175.306 67.257C182.562 64.7577 189.712 61.6419 197.186 60.0083C200.685 59.2434 204.81 61.3399 209.636 62.3032C214.665 61.5776 220.686 65.1001 221.787 57.4292C221.846 57.0125 223.885 57.0994 224.729 56.5396C229.821 53.163 232.925 59.2654 237.314 59.0773C237.881 59.0948 238.448 59.1122 240.041 59.1534C246.461 59.8271 250.461 55.4857 254.445 54.5609C262.965 52.5833 272.475 50.6104 281.67 54.9365C284.496 56.2665 288.825 54.4025 292.466 54.001C292.466 54.001 292.407 53.8435 292.979 53.8097C298.669 52.6919 303.788 51.6077 308.907 50.5237C309.476 50.5491 310.046 50.5745 311.57 50.6979C313.622 50.7096 314.719 50.6235 315.815 50.5373C316.371 50.5685 316.927 50.5997 318.518 50.6961C329.768 49.9648 339.985 49.1684 350.201 48.3719C357.587 48.1763 365.039 48.5335 372.341 47.6497C382.201 46.4564 391.932 44.2272 401.743 42.5924C412.697 40.7673 423.745 39.4469 434.63 37.2892C446.551 34.9262 458.494 32.4692 470.379 30.0768C480.452 28.0491 491.166 24.2443 501.898 28.4376C503.085 28.9016 504.711 28.8769 505.945 28.4844C512.868 26.2807 519.649 23.5808 526.652 21.694C530.568 20.6389 534.817 20.7957 538.921 20.4677C543.746 20.0821 548.602 19.3239 553.394 19.6037C555.722 19.7396 557.934 21.8714 559.865 21.1824C564.803 20.0719 569.742 18.9614 575.385 18.397C580.541 23.1074 588.941 21.3406 593.773 15.2236C596.298 14.9551 598.827 14.713 601.348 14.4104C603.609 14.139 605.855 13.6604 608.122 13.5329C610.265 13.4124 613.421 12.7354 614.418 13.8445C620.576 20.6933 626.801 18.3956 633.422 14.9901C634.781 14.291 636.717 14.7144 638.669 14.6045C638.846 12.7445 639.011 11.0004 639.127 9.78557C646.726 9.23237 654.236 4.31618 662.404 10.1647C673.774 10.8458 684.305 11.0333 694.833 11.2952C695.424 11.3099 696.169 11.8054 696.556 12.301C700.983 17.9786 704.708 15.4625 708.208 11.2841C711.907 13.5448 715.488 15.7331 719.655 18.0168C723.336 17.699 726.43 17.268 729.528 16.8757C741.199 15.398 752.871 13.9329 765.162 12.4578C772.349 10.1377 780.356 18.0071 786.175 8.59183C788.067 10.9173 789.512 12.6924 789.726 12.9556C796.25 11.6946 801.718 10.6377 807.187 9.58076ZM301.636 266.989C300.944 268.028 300.252 269.068 299.56 270.107C299.818 270.735 300.076 271.362 300.334 271.99C306.563 270.688 312.793 269.387 319.022 268.086C318.987 267.511 318.952 266.935 318.917 266.359C313.473 266.359 308.029 266.359 301.636 266.989Z" fill="#C7D8FF"/>
<path d="M204.183 293.391C209.62 292.364 215.07 291.402 220.491 290.294C228.508 288.657 236.509 286.938 244.507 285.211C248.605 284.326 252.683 283.347 257.946 282.471C261.338 282.811 263.988 282.409 265.686 283.495C271.004 286.899 273.988 285.325 275.78 279.799C276.811 279.744 277.842 279.689 279.522 279.911C280.543 280.031 280.915 279.875 281.287 279.72C281.514 279.664 281.74 279.609 282.352 280.113C283.699 283.031 284.661 285.389 286.223 287.8C290.808 287.766 294.793 287.682 299.418 287.681C302.638 287.719 305.216 287.672 308.291 287.628C309.701 287.597 310.865 287.914 311.488 287.47C315.614 284.53 319.395 282.422 324.963 284.97C328.843 286.745 329.849 283.288 329.389 279.284C329.482 277.284 329.54 275.832 330.182 274.335C333.997 275.125 337.227 275.961 340.049 277.038C337.164 280.813 337.848 282.977 342.387 282.419C348.143 281.712 353.834 280.484 360.101 279.544C363.249 278.591 365.85 277.576 369.037 276.673C374.639 275.916 379.71 275.272 384.631 274.032C386.022 273.681 386.973 271.587 388.126 270.293C386.399 269.999 384.678 269.517 382.944 269.465C381.184 269.413 379.41 269.786 377.192 269.75C374.722 268.249 372.702 266.972 371.026 265.227C383.098 263.256 394.825 261.751 407.196 260.313C418.158 259.088 428.91 262.786 438.948 257.651C439.699 257.267 441.275 258.498 442.451 259.339C442.858 259.843 443.281 259.986 444.165 260.226C445.25 260.261 445.873 260.197 447.135 260.197C454.212 260.219 460.65 260.177 467.655 260.223C473.075 259.443 477.929 258.576 484.216 257.453C484.657 255.821 485.536 252.571 486.414 249.321C490.17 247.662 493.781 245.262 497.711 244.498C506.423 242.802 515.261 241.479 524.109 240.817C539.721 239.651 555.379 239.094 571.017 238.273C571.702 238.237 572.421 238.227 573.059 238.011C586.919 233.317 586.237 232.733 591.819 247.479C593.839 252.816 595.89 258.477 591.439 264.082C590.546 265.207 591.429 268.04 591.971 269.95C593.625 275.782 595.512 281.547 597.314 288.279C598.416 294.301 599.513 299.383 600.609 304.466C600.982 306.244 601.368 308.02 601.724 309.802C602.925 315.822 600.46 319.667 594.534 321.194C592.543 321.707 590.586 322.374 588.65 323.072C585.359 324.26 579.485 325.191 579.274 326.822C578.355 333.923 578.619 341.302 579.593 348.424C579.801 349.947 584.759 350.819 587.529 351.992C588.309 351.479 589.09 350.967 589.87 350.455C590.585 356.966 592.101 363.54 591.603 369.956C591.415 372.368 586.865 375.606 583.765 376.424C570.741 379.858 557.611 384.251 544.334 385.004C529.189 385.864 515.176 390.187 500.789 393.704C482.901 398.077 464.931 402.113 447.01 406.353C434.303 409.36 421.677 412.744 408.898 415.4C402.893 416.649 396.451 415.883 390.5 417.281C382.546 419.149 374.931 422.415 367.059 424.697C364.224 425.519 361.067 425.232 357.18 425.23C353.779 424.267 351.256 423.526 348.732 422.784C348.122 422.833 347.513 422.883 346.057 422.793C343.195 421.895 341.179 421.136 339.162 420.377C338.845 420.415 338.528 420.453 337.465 420.888C336.505 421.713 336.291 422.143 336.077 422.572C336.077 422.572 336.119 422.66 335.598 422.724C332.631 422.164 330.184 421.54 327.903 420.957C327.308 423.639 326.823 425.829 326.338 428.019C322.849 417.602 318.231 424.333 314.304 426.778C313.665 424.467 313.172 422.685 312.539 420.397C308.734 422.242 305.431 423.844 301.938 425.01C296.834 422.964 296.834 422.964 294.57 429.956C291.7 431.099 289.069 432.567 286.258 433.12C284.322 433.5 282.147 432.518 280.062 432.31C275.343 431.838 269.713 429.647 266.082 431.445C259.141 434.884 252.686 435.958 245.457 433.908C245.457 433.908 245.463 433.856 245.507 433.343C245.967 430.759 246.383 428.688 247.302 424.123C242.7 426.057 239.973 427.204 237.236 428.347C237.227 428.344 237.229 428.359 236.79 428.366C236.172 431.1 235.992 433.826 235.398 436.797C233.471 437.973 231.958 438.906 229.637 440.335C230.401 434.387 229.449 430.126 224.002 431.16C217.889 432.319 212.068 435.018 207.563 436.556C208.242 439.881 209.47 442.166 208.788 443.309C207.227 445.924 204.731 447.98 202.616 450.264C202.048 450.376 201.481 450.488 200.001 450.618C194.059 446.179 185.005 445.827 178.435 448.678C171.643 451.625 164.401 453.535 157.223 455.405C151.713 451.405 148.372 452.769 147.347 458.792C142.24 458.792 137.378 458.792 132.516 458.792C131.933 458.754 131.349 458.716 129.928 458.566C128.532 458.41 127.974 458.364 127.416 458.319C127.416 458.319 127.195 457.82 127.17 457.175C127.067 456.281 126.989 456.032 126.911 455.782C127.009 455.25 127.108 454.718 127.717 453.672C128.182 451.71 128.136 450.26 128.09 448.81C128.09 448.81 128.269 448.244 128.752 447.904C129.593 447.024 129.95 446.485 130.307 445.946C130.489 445.801 130.67 445.657 131.466 445.208C132.14 443.995 132.202 443.087 132.263 442.179C132.314 441.555 132.365 440.931 132.975 439.621C134.288 436.463 135.043 433.991 135.797 431.518C135.797 431.518 135.319 431.261 136.04 431.353C138.51 429.176 140.259 426.909 142.008 424.642C139.958 423.174 138.022 420.767 135.825 420.498C133.598 420.226 131.145 422.168 128.73 422.952C126.681 423.618 124.517 424.533 122.454 424.419C118.888 424.224 115.36 423.317 111.815 422.708C108.467 423.462 105.119 424.215 100.91 425.287C99.271 426.351 98.4937 427.096 97.7164 427.842C97.7164 427.842 97.7998 427.992 97.3338 427.928C95.1667 425.978 92.9161 424.344 91.9041 422.141C90.6489 419.408 90.4193 416.204 89.7467 413.203C89.8024 412.171 89.8582 411.138 90.4397 409.566C96.8867 408.352 102.681 407.452 105.732 401.171C115.215 402.799 127.145 396.257 125.87 390.655C128.001 389.259 130.111 387.876 132.22 386.494C131.951 385.584 131.682 384.674 131.413 383.764C125.826 384.811 120.24 385.858 114.12 386.954C110.695 387.896 107.803 388.789 104.371 389.719C99.4647 390.62 95.0018 392.524 90.7512 392.131C81.8852 391.311 73.7114 393.107 66.3325 397.419C61.059 400.501 59.0434 398.452 56.902 394.138C56.0091 392.339 54.4373 390.877 53.1743 389.262C53.1743 389.262 53.0965 389.443 53.1365 389.004C52.6194 388.006 52.0624 387.448 51.5054 386.889C51.5054 386.889 51.41 387.036 51.4929 386.647C51.5758 386.259 51.3323 385.641 51.3323 385.641C51.4376 378.653 51.5429 371.666 51.9909 363.785C52.6785 359.597 54.5408 355.019 53.0605 353.267C49.7055 349.297 51.7049 347.756 54.4913 345.753C56.6818 344.178 58.958 342.722 59.8963 342.09C63.3482 342.503 65.5197 343.1 67.6396 342.953C74.1627 342.5 80.2754 336.748 87.5607 341.579C88.138 341.562 88.3593 341.458 88.7962 341.658C90.2485 341.39 91.4851 340.819 93.2493 340.248C97.0775 339.285 100.378 338.322 104.186 337.428C108.719 336.426 112.757 335.4 116.766 334.269C119.245 333.57 124.323 328.137 124.381 325.834C124.824 323.858 125.244 322.353 126.197 320.716C132.249 318.902 137.769 317.22 143.289 315.537C146.183 314.889 149.003 313.672 151.762 312.332C155.095 310.713 158.376 308.989 161.68 307.311C161.68 307.311 161.577 307.164 162.127 307.302C166.96 307.281 171.482 307.948 175.473 306.787C182.958 304.608 190.217 301.562 197.397 298.473C199.921 297.388 201.936 295.119 204.183 293.391ZM227.394 358.532C222.849 359.751 218.304 360.971 212.805 362.314C210.9 363.32 208.996 364.327 205.942 365.176C202.137 366.026 198.333 366.875 193.713 368.314C189.419 370.067 185.125 371.82 179.705 373.436C166.763 375.97 153.821 378.504 140.879 381.038C141.009 381.673 141.138 382.309 141.268 382.944C145.314 384.118 149.336 385.392 153.422 386.405C154.674 386.715 156.195 386.584 157.434 386.175C161.778 384.742 165.979 382.836 170.371 381.595C177.529 379.573 184.794 377.933 193.147 376.262C195.44 376.143 197.733 376.023 201.184 376.073C202.968 376.002 205.156 376.567 206.46 375.739C210.08 373.441 216.97 375.137 217.52 367.48C219.472 366.575 221.424 365.669 224.378 364.96C226.646 366.494 228.764 368.887 231.225 369.318C233.628 369.739 236.494 368.425 238.957 367.395C243.267 365.593 247.424 363.425 252.577 360.966C253.888 361.146 256.829 361.55 259.769 361.953C260.077 360.861 260.385 359.768 260.692 358.675C256.865 357.073 252.893 353.884 249.243 354.217C242.793 354.806 236.538 357.54 229.396 359.328C228.858 359.332 228.32 359.336 227.394 358.532ZM380.213 309.908C384.381 308.922 388.549 307.937 394.009 307.041C398.794 307.067 403.579 307.159 408.362 307.103C413.284 307.045 414.073 304.57 412.903 302.076C408.77 302.076 405.613 301.85 402.5 302.123C395.978 302.695 389.479 303.529 381.775 304.199C378.574 304.333 375.372 304.467 371.021 304.432C363.145 305.86 355.244 307.172 347.423 308.855C346.351 309.085 345.676 311.164 344.817 312.387C346.078 313.061 347.484 314.494 348.577 314.286C355.096 313.044 361.544 311.424 368.193 310.911C369.887 311.859 371.687 312.657 373.255 313.782C378.204 317.332 379.092 314.555 380.213 309.908ZM432.22 301.61C436.224 300.386 440.227 299.161 444.231 297.937C444.107 297.281 443.982 296.626 443.858 295.97C438.151 296.275 432.445 296.579 426.738 296.884C426.617 297.642 426.495 298.4 426.374 299.157C427.963 300.011 429.551 300.864 432.22 301.61ZM257.843 295.076C260.795 293.394 266.305 294.728 265.481 286.946C262.164 288.132 259.247 289.002 256.56 290.336C256.185 290.522 256.945 292.993 257.843 295.076Z" fill="#040D22"/>
<path d="M53.1767 389.788C54.4373 390.877 56.0091 392.339 56.902 394.138C59.0434 398.452 61.059 400.501 66.3324 397.419C73.7114 393.107 81.8852 391.311 90.7512 392.131C95.0018 392.524 99.4647 390.62 104.868 389.79C106.992 390.719 108.079 391.614 108.61 392.53C101.176 393.424 103.421 397.244 105.339 400.959C102.681 407.452 96.8867 408.352 90.4017 409.048C87.0308 403.997 82.4195 405.447 78.1588 405.929C68.0907 407.067 56.2616 399.723 53.1767 389.788Z" fill="#8FB2FF"/>
<path d="M795.87 180.258C791.738 181.055 787.469 181.36 784.505 181.571C782.587 184.589 781.318 186.584 780.021 188.624C780.909 189.438 782.445 190.845 785.226 193.394C777.957 192.668 772.489 192.265 767.082 191.454C766.085 191.304 765.336 189.5 764.203 187.515C762.458 186.095 760.981 185.62 759.683 185.202C759.45 181.641 759.235 178.339 759.019 175.037C759.019 175.037 759.689 174.879 760.422 175.263C762.954 177.914 759.612 183.872 766.796 182.84C766.062 178.809 765.373 175.025 764.684 171.241C764.684 171.241 764.675 171.021 765.103 170.941C766.074 170.54 766.619 170.219 767.163 169.899C772.15 169.494 774.409 166.481 775.14 161.336C776.871 162.365 778.4 165.124 779.869 165.092C784.5 164.993 787.052 167.043 787.3 171.214C787.636 176.847 792.71 177.154 795.87 180.258Z" fill="#8FB2FF"/>
<path d="M764.543 12.463C752.871 13.9329 741.199 15.398 729.528 16.8757C726.43 17.268 723.336 17.699 719.519 17.622C719.671 16.1064 721.333 15.0196 721.259 14.068C721.083 11.8068 720.085 9.60958 719.419 7.38651C718.393 8.61813 717.366 9.84973 716.337 11.0838C716.333 11.0863 716.329 11.0926 715.858 11.0212C712.471 8.66717 709.556 6.38463 706.641 4.10209C709.479 3.21479 712.318 2.32748 716.242 1.65604C721.275 2.36342 725.618 5.43259 728.675 0.12811C732.618 -0.43948 734.661 0.880348 734.282 5.2465C733.927 9.34681 735.763 10.4732 739.681 8.96212C741.629 8.21067 744.379 7.36015 745.94 8.16266C752.269 11.4171 756.267 7.1049 761.358 4.77231C763.372 6.88945 764.854 8.5994 766.386 10.3683C765.999 10.8085 765.271 11.6358 764.543 12.463ZM726.714 8.76437C726.04 8.25572 725.365 7.74708 724.69 7.23843C724.414 7.73327 724.137 8.22812 723.861 8.72297C724.609 8.93599 725.358 9.14902 726.714 8.76437Z" fill="#EBF6F7"/>
<path d="M765.162 12.4578C765.271 11.6358 765.999 10.8085 766.386 10.3683C764.853 8.59939 763.372 6.88944 761.839 4.70299C761.416 0.103881 764.152 -0.320203 767.079 0.147582C775.058 1.4228 783.045 2.7197 790.943 4.4088C796.221 5.53743 801.351 7.3517 806.867 9.21995C801.718 10.6377 796.25 11.6946 789.726 12.9556C789.512 12.6924 788.067 10.9173 786.175 8.59182C780.356 18.0071 772.349 10.1377 765.162 12.4578Z" fill="#DAECF0"/>
<path d="M716.34 11.0813C717.366 9.84973 718.393 8.61813 719.419 7.38651C720.085 9.60959 721.083 11.8068 721.259 14.068C721.333 15.0196 719.671 16.1065 718.934 17.5266C715.488 15.7331 711.907 13.5448 708.208 11.2841C704.708 15.4625 700.983 17.9786 696.556 12.301C696.169 11.8054 695.424 11.3099 694.833 11.2952C684.305 11.0333 673.774 10.8458 662.927 10.2604C664.555 8.90914 666.439 7.27189 668.456 7.08875C676.234 6.38229 684.053 6.09752 691.861 5.76775C693.157 5.71305 694.835 5.78995 695.723 6.53624C700.13 10.2408 703.009 8.02796 706.153 4.22275C709.556 6.38463 712.471 8.66717 715.932 11.2104C716.597 11.5379 716.715 11.6046 716.833 11.6713C716.669 11.4747 716.504 11.278 716.34 11.0813Z" fill="#D7ECF1"/>
<path d="M157.356 455.898C164.401 453.535 171.643 451.625 178.435 448.678C185.005 445.827 194.059 446.179 199.598 450.778C193.061 454.352 186.014 457.785 178.665 460.839C177.643 459.175 176.922 457.89 176.202 456.604C170.758 462.014 164.168 457.081 158.263 458.476C158.169 458.499 157.668 456.796 157.356 455.898Z" fill="#8FB2FF"/>
<path d="M203.147 450.302C204.731 447.98 207.227 445.924 208.788 443.309C209.47 442.166 208.242 439.881 207.563 436.556C212.068 435.018 217.889 432.319 224.002 431.16C229.449 430.126 230.401 434.387 229.637 440.335C231.958 438.906 233.471 437.973 235.777 436.862C236.823 436.724 237.076 436.764 237.329 436.804C233.051 438.847 228.873 441.145 224.471 442.874C217.62 445.566 210.617 447.871 203.147 450.302Z" fill="#8FB2FF"/>
<path d="M302.128 425.446C305.431 423.844 308.734 422.242 312.539 420.397C313.172 422.685 313.665 424.467 314.304 426.778C318.231 424.333 322.849 417.602 326.338 428.019C326.823 425.829 327.308 423.639 327.903 420.957C330.184 421.54 332.631 422.164 335.567 422.673C329.45 432.283 318.438 435.602 308.499 429.976C304.527 427.728 301.447 427.892 297.407 429.333C298.694 427.816 300.411 426.631 302.128 425.446Z" fill="#8FB2FF"/>
<path d="M87.2047 341.492C80.2754 336.748 74.1627 342.5 67.6396 342.953C65.5197 343.1 63.3482 342.503 59.8962 342.09C58.958 342.722 56.6818 344.178 54.4912 345.753C51.7048 347.756 49.7055 349.297 53.0605 353.267C54.5408 355.019 52.6784 359.597 52.0563 363.259C46.7 352.385 47.8597 347.182 57.2446 341.085C62.6929 337.546 68.4027 334.409 74.3682 331.392C74.7365 332.038 74.7467 332.383 74.3974 333.153C74.9215 334.828 75.697 337.014 76.7423 337.152C80.0914 337.593 83.5404 337.276 86.9963 337.306C87.0419 337.36 87.1446 337.458 87.0279 337.803C87.009 339.263 87.1069 340.378 87.2047 341.492Z" fill="#8FB2FF"/>
<path d="M157.223 455.405C157.668 456.796 158.169 458.499 158.263 458.476C164.168 457.081 170.758 462.014 176.202 456.604C176.922 457.89 177.643 459.175 178.164 460.856C173.996 462.043 170.036 463.42 166.057 463.473C161.47 463.533 156.87 462.394 152.269 461.83C145.853 461.044 139.431 460.308 132.764 459.172C137.378 458.792 142.24 458.792 147.347 458.792C148.372 452.769 151.713 451.405 157.223 455.405Z" fill="#8FB2FF"/>
<path d="M301.938 425.01C300.411 426.631 298.694 427.816 296.947 429.494C290.942 435.879 274.483 439.37 268.399 434.126C266.12 437.347 251.862 437.877 245.606 434.438C252.686 435.958 259.141 434.884 266.082 431.446C269.713 429.647 275.343 431.838 280.062 432.31C282.147 432.518 284.322 433.5 286.258 433.12C289.069 432.567 291.7 431.099 294.57 429.956C296.834 422.964 296.834 422.964 301.938 425.01Z" fill="#8FB2FF"/>
<path d="M291.961 53.9665C288.825 54.4025 284.496 56.2665 281.67 54.9365C272.475 50.6104 262.965 52.5833 254.445 54.5609C250.461 55.4857 246.461 59.8271 240.461 59.0799C239.853 57.0144 239.853 55.0462 239.853 52.0197C254.769 52.0197 269.689 52.0197 285.243 52.0197C285.224 52.2856 285.144 53.3852 285.016 55.149C287.232 54.7302 289.345 54.3311 291.961 53.9665Z" fill="#ACE5EF"/>
<path d="M74.7724 332.727C74.7467 332.383 74.7365 332.038 74.7561 331.445C78.6041 329.594 82.4378 327.99 87.0389 326.268C88.2026 325.875 88.4236 325.498 88.4695 325.018C88.5034 324.757 88.5373 324.497 88.6854 323.859C89.3296 323.498 89.8598 323.513 90.7667 324.133C90.049 326.849 88.9545 328.96 87.433 331.894C90.8754 331.894 93.8335 331.894 97.1866 332.089C97.8031 333.101 98.0246 333.917 97.7264 334.786C93.8526 335.712 90.4986 336.585 87.1446 337.458C87.1446 337.458 87.0419 337.36 86.9752 336.87C85.2709 334.293 84.3887 330.928 80.4255 333.906C79.4096 334.67 76.7025 333.181 74.7724 332.727Z" fill="#8FB2FF"/>
<path d="M112.316 422.834C115.36 423.317 118.887 424.223 122.454 424.419C124.517 424.533 126.681 423.618 128.73 422.952C131.145 422.168 133.598 420.226 135.825 420.498C138.022 420.767 139.958 423.174 142.008 424.642C140.259 426.909 138.51 429.176 136.271 431.496C136.029 429.841 136.277 428.133 136.738 424.967C127.875 428.673 120.199 426.821 112.316 422.834Z" fill="#8FB2FF"/>
<path d="M237.061 58.6609C232.925 59.2654 229.821 53.163 224.729 56.5396C223.885 57.0994 221.846 57.0125 221.787 57.4292C220.686 65.1001 214.665 61.5776 210.18 62.2934C211.584 59.9257 213.984 55.5808 215.181 55.8905C222.335 57.7419 230.724 48.6201 237.061 58.6609Z" fill="#ACE5EF"/>
<path d="M600.841 303.988C599.513 299.383 598.416 294.301 597.589 288.87C600.79 290.48 603.72 292.438 607.085 294.628C602.591 295.67 601.856 299.608 600.841 303.988Z" fill="#8FB2FF"/>
<path d="M237.711 436.816C237.076 436.764 236.823 436.724 236.191 436.618C235.992 433.826 236.172 431.1 236.851 428.871C238.844 429.868 240.338 430.369 241.832 430.869C241.977 430.211 242.122 429.552 242.268 428.894C240.594 428.713 238.92 428.532 237.246 428.351C239.973 427.204 242.7 426.057 247.302 424.123C246.383 428.688 245.967 430.759 245.488 433.361C242.981 434.872 240.537 435.85 237.711 436.816Z" fill="#8FB2FF"/>
<path d="M593.193 15.1327C588.941 21.3406 580.541 23.1074 575.979 18.4672C581.45 17.0082 587.032 16.025 593.193 15.1327Z" fill="#ACE5EF"/>
<path d="M636.804 282.193C638.408 279.788 640.568 277.459 643.431 274.371C645.492 275.687 647.816 277.17 650.209 279.123C645.965 280.453 642.321 284.543 636.804 282.193Z" fill="#8FB2FF"/>
<path d="M349.555 48.2928C339.985 49.1684 329.768 49.9648 318.931 50.6258C321.491 49.7861 324.649 48.632 327.857 48.4703C334.86 48.1171 341.889 48.2685 349.555 48.2928Z" fill="#ACE5EF"/>
<path d="M89.3885 413.582C90.4193 416.204 90.6489 419.408 91.9041 422.141C92.9161 424.344 95.1667 425.978 97.3638 427.848C95.8011 427.699 92.1761 428.077 91.9409 427.352C90.5369 423.029 89.9148 418.452 89.3885 413.582Z" fill="#8FB2FF"/>
<path d="M308.439 50.2248C303.788 51.6078 298.669 52.6919 293.036 53.8706C294.098 52.5725 295.518 50.2832 297.282 49.9772C300.744 49.3765 304.397 49.8796 308.439 50.2248Z" fill="#ACE5EF"/>
<path d="M728.075 0.117767C725.618 5.43259 721.275 2.36342 716.823 1.65328C720.036 0.992226 723.756 0.549825 728.075 0.117767Z" fill="#D7ECF1"/>
<path d="M630.062 287.861C631.481 285.963 633.383 284.062 635.781 282.136C634.366 284.026 632.456 285.942 630.062 287.861Z" fill="#8FB2FF"/>
<path d="M339.242 420.906C341.179 421.136 343.195 421.895 345.61 422.901C343.78 422.577 341.55 422.006 339.242 420.906Z" fill="#8FB2FF"/>
<path d="M135.338 431.594C135.043 433.991 134.288 436.463 133.102 439.168C133.407 436.824 134.143 434.247 135.338 431.594Z" fill="#8FB2FF"/>
<path d="M349.044 423.16C351.256 423.526 353.779 424.267 356.661 425.293C354.465 424.896 351.91 424.216 349.044 423.16Z" fill="#8FB2FF"/>
<path d="M127.728 448.925C128.136 450.26 128.182 451.71 127.834 453.283C127.415 451.951 127.391 450.495 127.728 448.925Z" fill="#8FB2FF"/>
<path d="M650.518 279.984C651.739 279.678 653.211 279.768 655.236 279.875C654.116 280.055 652.442 280.217 650.518 279.984Z" fill="#8FB2FF"/>
<path d="M98.1931 427.967C98.4937 427.096 99.271 426.351 100.486 425.585C100.173 426.407 99.4214 427.25 98.1931 427.967Z" fill="#8FB2FF"/>
<path d="M131.972 442.441C132.202 443.087 132.14 443.995 131.699 444.95C131.439 444.232 131.56 443.468 131.972 442.441Z" fill="#8FB2FF"/>
<path d="M315.514 50.2646C314.719 50.6235 313.622 50.7096 311.994 50.6379C312.713 50.3173 313.963 50.1546 315.514 50.2646Z" fill="#ACE5EF"/>
<path d="M797.68 183.862C797.124 183.369 796.545 182.426 795.929 181.051C796.481 181.551 797.07 182.482 797.68 183.862Z" fill="#8FB2FF"/>
<path d="M88.0284 319.855C88.3704 320.222 88.4532 320.793 88.4579 321.79C88.1762 321.497 87.9728 320.779 88.0284 319.855Z" fill="#8FB2FF"/>
<path d="M127.465 458.676C127.974 458.364 128.532 458.409 129.489 458.593C129.096 458.832 128.305 458.933 127.465 458.676Z" fill="#8FB2FF"/>
<path d="M126.602 455.835C126.989 456.032 127.067 456.281 127.082 456.916C126.476 457.076 125.932 456.848 125.388 456.621C125.69 456.376 125.992 456.132 126.602 455.835Z" fill="#8FB2FF"/>
<path d="M129.988 446.048C129.95 446.485 129.593 447.024 128.87 447.631C128.892 447.182 129.281 446.666 129.988 446.048Z" fill="#8FB2FF"/>
<path d="M51.4826 387.345C52.0624 387.448 52.6194 388.006 53.2272 388.965C52.6719 388.844 52.0659 388.322 51.4826 387.345Z" fill="#8FB2FF"/>
<path d="M775.275 158.431C775.048 158.39 774.915 157.769 775.048 156.913C775.332 157.07 775.351 157.461 775.275 158.431Z" fill="#8FB2FF"/>
<path d="M51.0969 385.776C51.3323 385.641 51.5758 386.259 51.5595 386.591C51.3159 386.586 51.0887 386.249 51.0969 385.776Z" fill="#8FB2FF"/>
<path d="M88.1912 325.184C88.4236 325.498 88.2025 325.875 87.495 326.276C87.3254 325.981 87.5685 325.63 88.1912 325.184Z" fill="#8FB2FF"/>
<path d="M336.465 422.49C336.291 422.143 336.505 421.713 337.062 421.146C337.221 421.476 337.037 421.942 336.465 422.49Z" fill="#8FB2FF"/>
<path d="M798.835 185.641C798.573 185.697 798.204 185.458 797.815 184.873C798.195 184.698 798.506 184.97 798.835 185.641Z" fill="#8FB2FF"/>
<path d="M406.553 260.247C394.825 261.751 383.098 263.256 370.418 265.282C361.642 266.747 353.818 267.69 345.994 268.633C347.649 264.866 350.833 261.334 347.141 256.858C346.748 256.38 348.722 253.95 350.387 251.054C351.2 254.532 351.589 256.198 352.022 258.047C355.514 258.325 359.111 259.192 362.463 258.621C364.026 258.354 365.115 255.301 365.456 254.833C371.105 253.842 375.973 252.987 381.287 252.645C380.509 254.174 379.285 255.192 376.743 257.304C383.097 256.842 388.662 260.582 391.448 253.334C391.5 252.67 391.311 251.829 391.646 251.37C393.258 249.161 406.426 246.961 408.636 248.857C406.81 250.133 405.44 250.909 404.07 251.685C405.372 252.716 406.571 254.42 407.996 254.637C411.01 255.096 414.142 254.777 417.225 254.777C415.666 256.736 413.748 257.005 411.967 257.65C410.094 258.328 408.352 259.366 406.553 260.247Z" fill="#8FB2FF"/>
<path d="M161.202 307.185C158.376 308.989 155.095 310.713 151.762 312.332C149.003 313.672 146.183 314.888 143.289 315.537C137.769 317.22 132.249 318.902 125.748 320.703C120.971 322.277 117.175 323.732 113.366 324.697C111.025 322.66 108.696 321.113 105.943 319.76C103.988 321.191 102.46 322.429 100.868 324.108C99.9186 325.141 99.0324 325.732 97.972 325.971C96.999 324.969 96.2002 324.319 95.4015 323.669C95.4082 320.847 95.2447 318.346 99.4521 318.048C102.104 317.859 104.637 316 108.479 314.352C114.441 319.166 116.623 310.453 121.238 308.045C123.711 309.077 126.187 310.105 129.497 311.563C134.755 310.366 139.179 308.738 143.603 307.11C143.603 307.11 143.612 307.167 144.177 307.167C147.397 307.004 150.052 306.841 152.706 306.678C152.685 306.129 152.664 305.579 152.643 305.029C150.982 304.785 149.321 304.54 147.661 304.295C151.153 302.548 154.646 300.801 158.043 299.102C159.077 302.172 159.9 304.615 161.202 307.185Z" fill="#8FB2FF"/>
<path d="M407.196 260.313C408.352 259.366 410.094 258.328 411.967 257.65C413.748 257.005 415.666 256.736 417.225 254.777C414.142 254.777 411.01 255.096 407.996 254.637C406.571 254.42 405.372 252.716 404.07 251.685C405.44 250.909 406.81 250.133 408.715 249.374C411.114 249.592 413.085 250.288 414.822 249.91C423.225 248.079 430.873 250.903 439.391 253.737C441.818 253.915 443.469 253.68 445.12 253.444C445.729 253.447 446.339 253.451 447.403 253.967C447.403 256.364 446.949 258.249 446.496 260.134C445.873 260.197 445.25 260.26 444.024 259.972C443.169 259.308 442.851 259.094 442.468 258.978C441.275 258.498 439.699 257.267 438.948 257.651C428.91 262.786 418.158 259.088 407.196 260.313Z" fill="#8FB2FF"/>
<path d="M203.636 293.354C201.936 295.119 199.921 297.388 197.397 298.473C190.217 301.562 182.958 304.608 175.473 306.787C171.482 307.948 166.96 307.281 162.154 307.388C159.39 300.028 164.116 295.821 168.788 291.411C170.754 295.313 170.213 301.407 177.251 301.57C176.536 297.954 175.917 294.824 175.298 291.694C175.838 291.259 176.378 290.823 176.918 290.388C178.669 298.931 182.302 301.099 189.694 296.602C193.44 294.324 198.58 294.339 203.636 293.354Z" fill="#8FB2FF"/>
<path d="M345.48 268.793C353.818 267.69 361.642 266.747 370.074 265.749C372.702 266.972 374.722 268.249 376.838 270.155C373.971 272.511 366.988 268.331 368.45 276.56C365.85 277.576 363.249 278.591 360.165 279.031C357.481 277.102 355.287 274.642 353.083 274.633C348.877 274.616 344.666 275.996 340.457 276.796C337.227 275.961 333.997 275.125 329.884 274.184C328.587 273.858 328.32 273.52 328.202 273.064C333.79 271.694 339.378 270.324 345.48 268.793Z" fill="#8FB2FF"/>
<path d="M758.44 174.986C759.235 178.339 759.45 181.641 759.683 185.202C760.981 185.62 762.458 186.095 764.222 186.978C759.61 187.739 754.71 188.092 749.92 188.438C750.783 186.71 751.423 185.429 752.766 182.74C748.077 183.8 744.72 184.558 741.365 185.324C740.52 178.093 744.011 175.893 758.44 174.986Z" fill="#8FB2FF"/>
<path d="M327.575 272.933C328.32 273.52 328.587 273.858 329.3 274.229C329.54 275.832 329.482 277.284 328.765 279.171C321.267 280.089 314.43 280.572 307.204 280.919C305.528 281.506 304.241 282.227 302.574 283.16C301.922 281.162 301.245 279.09 300.569 277.018C306.871 275.584 313.145 273.997 319.491 272.794C321.89 272.34 324.458 272.772 327.575 272.933Z" fill="#8FB2FF"/>
<path d="M485.782 249.233C485.536 252.571 484.657 255.821 484.216 257.453C477.929 258.576 473.075 259.443 467.75 259.792C468.139 257.79 468.998 256.307 469.857 254.824C469.653 253.322 469.449 251.819 469.087 249.146C474.657 249.146 479.904 249.146 485.782 249.233Z" fill="#8FB2FF"/>
<path d="M299.95 277.038C301.245 279.09 301.922 281.162 302.574 283.16C304.241 282.227 305.528 281.506 307.14 281.467C307.575 283.974 307.685 285.799 307.795 287.625C305.216 287.672 302.638 287.718 299.449 287.19C294.788 280.279 289.725 280.713 285.623 287.748C284.661 285.389 283.699 283.031 282.689 280.204C288.205 278.843 293.768 277.95 299.95 277.038Z" fill="#8FB2FF"/>
<path d="M469.368 254.834C468.998 256.307 468.139 257.79 467.184 259.704C460.65 260.177 454.212 260.219 447.135 260.197C446.949 258.249 447.403 256.364 447.86 253.989C454.869 253.947 461.874 254.396 469.368 254.834Z" fill="#8FB2FF"/>
<path d="M94.9551 323.74C96.2002 324.319 96.999 324.969 97.6454 326.308C99.656 327.558 101.824 328.566 103.98 328.542C105.805 328.522 107.616 327.306 109.383 327.148C109.375 328.389 109.416 329.101 109.29 330.269C106.853 332.061 104.584 333.397 101.812 334.623C100.289 334.587 99.2676 334.66 98.2461 334.734C98.0246 333.917 97.8031 333.101 97.0335 331.64C95.5338 328.672 94.5822 326.35 93.6306 324.028C93.9233 323.956 94.216 323.884 94.9551 323.74Z" fill="#8FB2FF"/>
<path d="M302.11 266.674C308.029 266.359 313.473 266.359 318.917 266.359C318.952 266.935 318.987 267.511 319.022 268.086C312.793 269.387 306.563 270.689 300.334 271.99C300.076 271.362 299.818 270.735 299.56 270.107C300.252 269.068 300.944 268.028 302.11 266.674Z" fill="#8FB2FF"/>
<path d="M275.142 279.797C273.988 285.325 271.004 286.899 265.686 283.495C263.988 282.409 261.338 282.811 258.553 282.475C263.49 281.544 268.997 280.669 275.142 279.797Z" fill="#8FB2FF"/>
<path d="M390.957 253.118C388.662 260.582 383.097 256.842 376.743 257.304C379.285 255.192 380.509 254.174 381.866 252.689C384.822 252.448 387.644 252.674 390.957 253.118Z" fill="#8FB2FF"/>
<path d="M764.285 171.386C765.373 175.025 766.062 178.809 766.796 182.84C759.612 183.872 762.954 177.914 760.765 175.287C761.546 173.795 762.717 172.663 764.285 171.386Z" fill="#8FB2FF"/>
<path d="M93.2208 323.943C94.5822 326.35 95.5338 328.672 96.6384 331.444C93.8335 331.894 90.8754 331.894 87.433 331.894C88.9545 328.96 90.049 326.849 91.1476 324.253C91.7049 323.799 92.2579 323.829 93.2208 323.943Z" fill="#8FB2FF"/>
<path d="M143.014 307.122C139.179 308.738 134.755 310.366 129.973 311.593C133.886 309.839 138.156 308.487 143.014 307.122Z" fill="#8FB2FF"/>
<path d="M147.177 304.305C149.322 304.54 150.982 304.785 152.643 305.03C152.664 305.579 152.685 306.129 152.706 306.678C150.052 306.841 147.397 307.004 144.149 307.159C144.602 306.206 145.648 305.261 147.177 304.305Z" fill="#8FB2FF"/>
<path d="M444.83 253.084C443.469 253.68 441.818 253.916 439.878 253.784C441.241 253.186 442.891 252.955 444.83 253.084Z" fill="#8FB2FF"/>
<path d="M766.802 169.812C766.619 170.219 766.074 170.54 765.208 170.909C765.404 170.547 765.923 170.136 766.802 169.812Z" fill="#8FB2FF"/>
<path d="M280.936 279.628C280.915 279.875 280.543 280.031 280.035 279.98C280.128 279.694 280.357 279.615 280.936 279.628Z" fill="#8FB2FF"/>
<path d="M230.201 359.377C236.538 357.54 242.793 354.806 249.243 354.217C252.893 353.884 256.865 357.073 260.692 358.675C260.385 359.768 260.077 360.861 259.769 361.953C256.829 361.549 253.888 361.146 252.577 360.966C247.424 363.425 243.267 365.593 238.957 367.395C236.494 368.425 233.628 369.739 231.225 369.318C228.764 368.887 226.646 366.494 224.011 364.381C225.906 363.194 228.192 362.649 230.395 361.87C230.599 361.798 230.278 360.243 230.201 359.377Z" fill="#8FB2FF"/>
<path d="M105.732 401.171C103.421 397.245 101.176 393.424 108.618 392.954C109.75 393.751 110.318 394.146 110.885 394.539C112.141 391.995 113.397 389.45 114.653 386.905C120.24 385.858 125.826 384.811 131.413 383.764C131.682 384.674 131.951 385.584 132.22 386.494C130.111 387.876 128.001 389.259 125.87 390.655C127.145 396.257 115.215 402.799 105.732 401.171Z" fill="#8FB2FF"/>
<path d="M192.014 376.132C184.794 377.933 177.529 379.573 170.371 381.595C165.979 382.836 161.778 384.742 157.434 386.175C156.195 386.584 154.674 386.715 153.422 386.405C149.336 385.392 145.314 384.118 141.268 382.944C141.138 382.309 141.009 381.673 140.879 381.038C153.821 378.504 166.763 375.97 180.405 374.006C184.742 375.095 188.378 375.614 192.014 376.132Z" fill="#8FB2FF"/>
<path d="M368.015 309.931C361.544 311.424 355.096 313.044 348.577 314.286C347.484 314.494 346.078 313.061 344.817 312.387C345.676 311.164 346.351 309.085 347.423 308.854C355.244 307.172 363.145 305.86 371.521 304.941C371.155 306.87 370.289 308.289 369.076 309.795C368.491 309.899 368.253 309.915 368.015 309.931Z" fill="#8FB2FF"/>
<path d="M382.97 304.256C389.479 303.529 395.978 302.695 402.5 302.123C405.613 301.85 408.77 302.076 412.903 302.076C414.073 304.57 413.284 307.045 408.362 307.103C403.579 307.159 398.794 307.067 393.267 306.48C389.339 305.365 386.155 304.811 382.97 304.256Z" fill="#8FB2FF"/>
<path d="M192.581 376.197C188.378 375.614 184.742 375.095 180.969 374.075C185.125 371.82 189.419 370.067 194.721 368.062C198.814 367.982 201.9 368.155 204.985 368.328C204.965 368.801 204.945 369.275 204.925 369.748C203.022 370.37 201.119 370.991 197.954 372.025C200.553 372.915 201.806 373.345 203.308 373.86C201.872 374.755 200.949 375.329 200.026 375.904C197.733 376.023 195.44 376.143 192.581 376.197Z" fill="#8FB2FF"/>
<path d="M308.291 287.628C307.685 285.799 307.575 283.974 307.528 281.601C314.43 280.572 321.267 280.089 328.73 279.719C329.849 283.288 328.843 286.745 324.963 284.97C319.395 282.422 315.614 284.53 311.488 287.47C310.865 287.914 309.701 287.597 308.291 287.628Z" fill="#8FB2FF"/>
<path d="M200.605 375.988C200.949 375.329 201.872 374.755 203.308 373.86C201.806 373.345 200.553 372.915 197.954 372.025C201.119 370.991 203.022 370.37 204.925 369.748C204.945 369.275 204.965 368.802 204.985 368.328C201.9 368.155 198.814 367.982 195.129 367.767C198.333 366.875 202.137 366.026 206.563 365.691C210.338 366.742 213.493 367.278 216.647 367.814C216.97 375.137 210.08 373.441 206.46 375.739C205.156 376.567 202.968 376.002 200.605 375.988Z" fill="#8FB2FF"/>
<path d="M340.049 277.038C344.666 275.996 348.877 274.616 353.083 274.633C355.287 274.642 357.481 277.102 359.617 278.968C353.834 280.484 348.143 281.712 342.387 282.419C337.848 282.977 337.164 280.813 340.049 277.038Z" fill="#8FB2FF"/>
<path d="M369.037 276.673C366.988 268.331 373.971 272.511 377.288 270.378C379.41 269.786 381.184 269.413 382.944 269.465C384.678 269.516 386.399 269.999 388.126 270.293C386.973 271.587 386.022 273.681 384.631 274.032C379.71 275.272 374.639 275.916 369.037 276.673Z" fill="#8FB2FF"/>
<path d="M382.373 304.228C386.155 304.811 389.339 305.365 392.62 306.435C388.549 307.937 384.381 308.922 379.04 309.958C375.052 309.909 372.238 309.808 369.423 309.708C370.289 308.289 371.155 306.87 372.096 305.026C375.372 304.467 378.574 304.333 382.373 304.228Z" fill="#8FB2FF"/>
<path d="M102.314 334.732C104.584 333.397 106.853 332.061 109.851 330.12C115.172 328.445 119.765 327.375 124.358 326.305C124.323 328.137 119.245 333.57 116.766 334.269C112.757 335.4 108.719 336.426 104.032 337.09C103.019 336.034 102.666 335.383 102.314 334.732Z" fill="#8FB2FF"/>
<path d="M217.084 367.647C213.493 367.278 210.338 366.742 207.138 365.77C208.996 364.327 210.9 363.32 213.837 362.32C219.173 361.331 223.478 360.336 227.782 359.34C228.32 359.336 228.858 359.332 229.799 359.352C230.278 360.243 230.599 361.798 230.395 361.87C228.192 362.649 225.906 363.194 223.509 364.284C221.424 365.669 219.472 366.575 217.084 367.647Z" fill="#8FB2FF"/>
<path d="M431.68 301.664C429.551 300.864 427.963 300.011 426.374 299.157C426.495 298.4 426.617 297.642 426.738 296.884C432.445 296.579 438.151 296.275 443.858 295.97C443.982 296.626 444.107 297.281 444.231 297.937C440.227 299.161 436.224 300.386 431.68 301.664Z" fill="#8FB2FF"/>
<path d="M124.381 325.833C119.765 327.375 115.172 328.445 110.018 329.664C109.416 329.101 109.375 328.389 109.83 327.146C111.344 326.138 112.361 325.663 113.379 325.187C117.175 323.732 120.971 322.277 125.216 320.835C125.244 322.353 124.824 323.858 124.381 325.833Z" fill="#8FB2FF"/>
<path d="M257.511 294.741C256.945 292.993 256.185 290.522 256.56 290.336C259.247 289.002 262.164 288.132 265.481 286.946C266.305 294.728 260.795 293.394 257.511 294.741Z" fill="#8FB2FF"/>
<path d="M286.223 287.8C289.725 280.713 294.788 280.279 298.809 287.106C294.793 287.682 290.808 287.766 286.223 287.8Z" fill="#8FB2FF"/>
<path d="M101.812 334.623C102.666 335.383 103.019 336.034 103.525 337.022C100.378 338.322 97.0775 339.285 92.7889 340.195C90.7276 340.547 89.6541 340.951 88.5806 341.355C88.3593 341.458 88.138 341.562 87.5606 341.579C87.1069 340.378 87.009 339.263 87.0279 337.803C90.4986 336.585 93.8526 335.712 97.7263 334.786C99.2676 334.66 100.289 334.587 101.812 334.623Z" fill="#8FB2FF"/>
<path d="M369.076 309.795C372.238 309.808 375.052 309.909 378.465 310.098C379.092 314.555 378.204 317.332 373.255 313.782C371.687 312.657 369.887 311.859 368.104 310.421C368.253 309.915 368.491 309.899 369.076 309.795Z" fill="#8FB2FF"/>
<path d="M114.12 386.954C113.397 389.45 112.141 391.995 110.885 394.539C110.318 394.146 109.75 393.751 109.174 392.933C108.079 391.614 106.992 390.719 105.408 389.753C107.803 388.789 110.695 387.896 114.12 386.954Z" fill="#8FB2FF"/>
<path d="M227.588 358.936C223.478 360.336 219.173 361.331 214.315 362.258C218.304 360.971 222.849 359.751 227.588 358.936Z" fill="#8FB2FF"/>
<path d="M88.7962 341.658C89.6541 340.951 90.7276 340.547 92.2614 340.196C91.4851 340.819 90.2485 341.39 88.7962 341.658Z" fill="#8FB2FF"/>
<path d="M442.451 259.339C442.851 259.094 443.169 259.308 443.562 259.874C443.281 259.986 442.858 259.843 442.451 259.339Z" fill="#8FB2FF"/>
<path d="M726.41 9.0632C725.358 9.14902 724.609 8.93599 723.861 8.72297C724.137 8.22812 724.414 7.73327 724.69 7.23843C725.365 7.74708 726.04 8.25572 726.41 9.0632Z" fill="#D7ECF1"/>
<path d="M716.337 11.0838C716.505 11.278 716.669 11.4746 716.833 11.6713C716.715 11.6046 716.597 11.5379 716.404 11.2819C716.329 11.0926 716.333 11.0863 716.337 11.0838Z" fill="#EBF6F7"/>
<path d="M74.3974 333.153C76.7025 333.181 79.4096 334.67 80.4255 333.906C84.3887 330.928 85.2709 334.293 86.9297 336.816C83.5404 337.276 80.0914 337.593 76.7423 337.152C75.697 337.014 74.9215 334.828 74.3974 333.153Z" fill="#8FB2FF"/>
<path d="M237.236 428.347C238.92 428.532 240.594 428.713 242.268 428.894C242.122 429.552 241.977 430.211 241.832 430.869C240.338 430.369 238.844 429.868 237.29 428.864C237.229 428.359 237.227 428.344 237.236 428.347Z" fill="#8FB2FF"/>
<path d="M113.366 324.697C112.361 325.663 111.344 326.138 109.88 326.617C107.616 327.306 105.805 328.522 103.98 328.542C101.824 328.566 99.656 327.558 97.8196 326.66C99.0324 325.732 99.9186 325.141 101.404 324.118C103.458 322.313 104.913 320.94 106.368 319.567C108.696 321.113 111.025 322.66 113.366 324.697Z" fill="#8FB2FF"/>
<path d="M105.943 319.76C104.913 320.94 103.458 322.313 101.467 323.677C102.46 322.429 103.988 321.191 105.943 319.76Z" fill="#8FB2FF"/>
</svg>
